  0
SECTION
  2
HEADER
  9
$ACADVER
  1
AC1003
  9
$EXTMIN
 10
0.000562
 20
0.000000
  9
$EXTMAX
 10
4.000000
 20
3.999833
  0
ENDSEC
  0
TABLE
  2
LAYER
 70
	256
  0
LAYER
  2
1
 70
	0
  6
CONTINUOUS
 62
1
  0
ENDTAB
  0
SECTION
  2
ENTITIES
  0
LINE
  8
1
  6
CONTINUOUS
 10
2.0000
 11
2.0000
 20
0.0000
 21
2.0000
 30
0.0000
 31
0.0000
 62
256
  0
LINE
  8
1
  6
CONTINUOUS
 10
2.0000
 11
4.0000
 20
2.0000
 21
2.0000
 30
0.0000
 31
0.0000
 62
256
  0
LINE
  8
1
  6
CONTINUOUS
 10
2.0000
 11
1.7500
 20
1.9500
 21
1.9500
 30
0.0000
 31
0.0000
 62
2
  0
LINE
  8
1
  6
CONTINUOUS
 10
2.0500
 11
2.0500
 20
2.0000
 21
2.2500
 30
0.0000
 31
0.0000
 62
2
  0
LINE
  8
1
  6
CONTINUOUS
 10
0.1671
 11
0.1488
 20
1.1997
 21
1.1916
 30
0.0000
 31
0.0000
 62
2
  0
LINE
  8
1
  6
CONTINUOUS
 10
0.1752
 11
0.1569
 20
1.1814
 21
1.1733
 30
0.0000
 31
0.0000
 62
2
  0
LINE
  8
1
  6
CONTINUOUS
 10
0.1488
 11
0.1569
 20
1.1916
 21
1.1733
 30
0.0000
 31
0.0000
 62
6000
  0
LINE
  8
1
  6
CONTINUOUS
 10
3.4332
 11
3.4474
 20
3.3950
 21
3.4090
 30
0.0000
 31
0.0000
 62
2
  0
LINE
  8
1
  6
CONTINUOUS
 10
3.4192
 11
3.4334
 20
3.4092
 21
3.4233
 30
0.0000
 31
0.0000
 62
2
  0
LINE
  8
1
  6
CONTINUOUS
 10
3.4474
 11
3.4334
 20
3.4090
 21
3.4233
 30
0.0000
 31
0.0000
 62
6000
  0
LINE
  8
1
  6
CONTINUOUS
 10
1.8119
 11
1.7728
 20
0.2742
 21
1.5218
 30
0.0000
 31
0.0000
 62
3
  0
LINE
  8
1
  6
CONTINUOUS
 10
1.8228
 11
1.4615
 20
1.5211
 21
1.8120
 30
0.0000
 31
0.0000
 62
3
  0
LINE
  8
1
  6
CONTINUOUS
 10
1.5105
 11
2.0000
 20
1.8218
 21
1.9500
 30
0.0000
 31
0.0000
 62
3
  0
LINE
  8
1
  6
CONTINUOUS
 10
1.7500
 11
2.0500
 20
1.9500
 21
2.0000
 30
0.0000
 31
0.0000
 62
3
  0
LINE
  8
1
  6
CONTINUOUS
 10
2.0500
 11
1.4639
 20
2.2500
 21
2.2696
 30
0.0000
 31
0.0000
 62
3
  0
LINE
  8
1
  6
CONTINUOUS
 10
1.5132
 11
1.7680
 20
2.2776
 21
2.5700
 30
0.0000
 31
0.0000
 62
3
  0
LINE
  8
1
  6
CONTINUOUS
 10
1.8179
 11
2.2211
 20
2.5727
 21
2.5686
 30
0.0000
 31
0.0000
 62
3
  0
LINE
  8
1
  6
CONTINUOUS
 10
2.2709
 11
2.5288
 20
2.5736
 21
2.2758
 30
0.0000
 31
0.0000
 62
3
  0
LINE
  8
1
  6
CONTINUOUS
 10
2.5787
 11
3.7686
 20
2.2731
 21
2.2720
 30
0.0000
 31
0.0000
 62
3
  0
LINE
  8
1
  6
CONTINUOUS
 10
3.8184
 11
2.2317
 20
2.2765
 21
3.8226
 30
0.0000
 31
0.0000
 62
3
  0
LINE
  8
1
  6
CONTINUOUS
 10
2.2816
 11
1.7729
 20
3.8201
 21
3.8218
 30
0.0000
 31
0.0000
 62
3
  0
LINE
  8
1
  6
CONTINUOUS
 10
1.8229
 11
0.2144
 20
3.8211
 21
2.2699
 30
0.0000
 31
0.0000
 62
3
  0
LINE
  8
1
  6
CONTINUOUS
 10
0.2638
 11
0.2264
 20
2.2775
 21
1.8188
 30
0.0000
 31
0.0000
 62
3
  0
LINE
  8
1
  6
CONTINUOUS
 10
0.2764
 11
0.0808
 20
1.8178
 21
1.1418
 30
0.0000
 31
0.0000
 62
3
  0
ARC
  8
1
  6
CONTINUOUS
 10
2.0000
 20
2.0000
 30
0.0000
 40
2.0000
 50
0.0000
 51
44.2260
 62
256
  0
ARC
  8
1
  6
CONTINUOUS
 10
1.5000
 20
2.2031
 30
0.0000
 40
0.0781
 50
0.0000
 51
99.2130
 62
256
  0
ARC
  8
1
  6
CONTINUOUS
 10
1.5000
 20
2.2031
 30
0.0000
 40
0.0781
 50
180.0000
 51
0.0000
 62
256
  0
ARC
  8
1
  6
CONTINUOUS
 10
0.2500
 20
2.2031
 30
0.0000
 40
0.0781
 50
0.0000
 51
98.7650
 62
256
  0
ARC
  8
1
  6
CONTINUOUS
 10
0.2500
 20
2.2031
 30
0.0000
 40
0.0781
 50
180.0000
 51
0.0000
 62
256
  0
ARC
  8
1
  6
CONTINUOUS
 10
1.7969
 20
2.5000
 30
0.0000
 40
0.0781
 50
0.0000
 51
93.1248
 62
256
  0
ARC
  8
1
  6
CONTINUOUS
 10
1.7969
 20
2.5000
 30
0.0000
 40
0.0781
 50
180.0000
 51
0.0000
 62
256
  0
ARC
  8
1
  6
CONTINUOUS
 10
1.7969
 20
3.7500
 30
0.0000
 40
0.0781
 50
0.0000
 51
89.1603
 62
256
  0
ARC
  8
1
  6
CONTINUOUS
 10
1.7969
 20
3.7500
 30
0.0000
 40
0.0781
 50
180.0000
 51
0.0000
 62
256
  0
ARC
  8
1
  6
CONTINUOUS
 10
2.5500
 20
2.2031
 30
0.0000
 40
0.0781
 50
0.0000
 51
86.9801
 62
256
  0
ARC
  8
1
  6
CONTINUOUS
 10
2.5500
 20
2.2031
 30
0.0000
 40
0.0781
 50
180.0000
 51
0.0000
 62
256
  0
ARC
  8
1
  6
CONTINUOUS
 10
3.8000
 20
2.2031
 30
0.0000
 40
0.0781
 50
0.0000
 51
95.2559
 62
256
  0
ARC
  8
1
  6
CONTINUOUS
 10
3.8000
 20
2.2031
 30
0.0000
 40
0.0781
 50
180.0000
 51
0.0000
 62
256
  0
ARC
  8
1
  6
CONTINUOUS
 10
2.2531
 20
2.5000
 30
0.0000
 40
0.0781
 50
0.0000
 51
95.7068
 62
256
  0
ARC
  8
1
  6
CONTINUOUS
 10
2.2531
 20
2.5000
 30
0.0000
 40
0.0781
 50
180.0000
 51
0.0000
 62
256
  0
ARC
  8
1
  6
CONTINUOUS
 10
2.2531
 20
3.7500
 30
0.0000
 40
0.0781
 50
0.0000
 51
87.1914
 62
256
  0
ARC
  8
1
  6
CONTINUOUS
 10
2.2531
 20
3.7500
 30
0.0000
 40
0.0781
 50
180.0000
 51
0.0000
 62
256
  0
ARC
  8
1
  6
CONTINUOUS
 10
1.5000
 20
1.7469
 30
0.0000
 40
0.0781
 50
0.0000
 51
101.3315
 62
256
  0
ARC
  8
1
  6
CONTINUOUS
 10
1.5000
 20
1.7469
 30
0.0000
 40
0.0781
 50
180.0000
 51
0.0000
 62
256
  0
ARC
  8
1
  6
CONTINUOUS
 10
0.2500
 20
1.7469
 30
0.0000
 40
0.0781
 50
0.0000
 51
88.8544
 62
256
  0
ARC
  8
1
  6
CONTINUOUS
 10
0.2500
 20
1.7469
 30
0.0000
 40
0.0781
 50
180.0000
 51
0.0000
 62
256
  0
ARC
  8
1
  6
CONTINUOUS
 10
1.7969
 20
1.4500
 30
0.0000
 40
0.0781
 50
0.0000
 51
89.2406
 62
256
  0
ARC
  8
1
  6
CONTINUOUS
 10
1.7969
 20
1.4500
 30
0.0000
 40
0.0781
 50
180.0000
 51
0.0000
 62
256
  0
ARC
  8
1
  6
CONTINUOUS
 10
1.7969
 20
0.2000
 30
0.0000
 40
0.0781
 50
0.0000
 51
97.8457
 62
256
  0
ARC
  8
1
  6
CONTINUOUS
 10
1.7969
 20
0.2000
 30
0.0000
 40
0.0781
 50
180.0000
 51
0.0000
 62
256
  0
ARC
  8
1
  6
CONTINUOUS
 10
2.0000
 20
2.0000
 30
0.0000
 40
2.0000
 50
204.1616
 51
206.8183
 62
256
  0
ARC
  8
1
  6
CONTINUOUS
 10
2.0000
 20
2.0000
 30
0.0000
 40
2.0000
 50
44.7990
 51
203.5886
 62
256
  0
ARC
  8
1
  6
CONTINUOUS
 10
0.2500
 20
1.7469
 30
0.0000
 40
0.0781
 50
88.8544
 51
180.0000
 62
256
  0
ARC
  8
1
  6
CONTINUOUS
 10
0.2506
 20
1.7750
 30
0.0000
 40
0.0500
 50
88.8544
 51
118.8544
 62
2
  0
ARC
  8
1
  6
CONTINUOUS
 10
0.2506
 20
1.7750
 30
0.0000
 40
0.0500
 50
58.8544
 51
88.8544
 62
2
  0
ARC
  8
1
  6
CONTINUOUS
 10
0.2500
 20
2.2031
 30
0.0000
 40
0.0781
 50
98.7650
 51
180.0000
 62
256
  0
ARC
  8
1
  6
CONTINUOUS
 10
0.2457
 20
2.2309
 30
0.0000
 40
0.0500
 50
98.7650
 51
128.7650
 62
2
  0
ARC
  8
1
  6
CONTINUOUS
 10
0.2457
 20
2.2309
 30
0.0000
 40
0.0500
 50
68.7650
 51
98.7650
 62
2
  0
ARC
  8
1
  6
CONTINUOUS
 10
1.5000
 20
2.2031
 30
0.0000
 40
0.0781
 50
99.2130
 51
180.0000
 62
256
  0
ARC
  8
1
  6
CONTINUOUS
 10
1.4955
 20
2.2309
 30
0.0000
 40
0.0500
 50
99.2130
 51
129.2129
 62
2
  0
ARC
  8
1
  6
CONTINUOUS
 10
1.4955
 20
2.2309
 30
0.0000
 40
0.0500
 50
69.2130
 51
99.2130
 62
2
  0
ARC
  8
1
  6
CONTINUOUS
 10
1.7969
 20
2.5000
 30
0.0000
 40
0.0781
 50
93.1248
 51
180.0000
 62
256
  0
ARC
  8
1
  6
CONTINUOUS
 10
1.7953
 20
2.5281
 30
0.0000
 40
0.0500
 50
93.1247
 51
123.1247
 62
2
  0
ARC
  8
1
  6
CONTINUOUS
 10
1.7953
 20
2.5281
 30
0.0000
 40
0.0500
 50
63.1247
 51
93.1247
 62
2
  0
ARC
  8
1
  6
CONTINUOUS
 10
1.7969
 20
3.7500
 30
0.0000
 40
0.0781
 50
89.1603
 51
180.0000
 62
256
  0
ARC
  8
1
  6
CONTINUOUS
 10
1.7973
 20
3.7781
 30
0.0000
 40
0.0500
 50
89.1603
 51
119.1604
 62
2
  0
ARC
  8
1
  6
CONTINUOUS
 10
1.7973
 20
3.7781
 30
0.0000
 40
0.0500
 50
59.1604
 51
89.1603
 62
2
  0
ARC
  8
1
  6
CONTINUOUS
 10
2.2531
 20
3.7500
 30
0.0000
 40
0.0781
 50
87.1914
 51
180.0000
 62
256
  0
ARC
  8
1
  6
CONTINUOUS
 10
2.2545
 20
3.7781
 30
0.0000
 40
0.0500
 50
87.1914
 51
117.1914
 62
2
  0
ARC
  8
1
  6
CONTINUOUS
 10
2.2545
 20
3.7781
 30
0.0000
 40
0.0500
 50
57.1913
 51
87.1914
 62
2
  0
ARC
  8
1
  6
CONTINUOUS
 10
2.2531
 20
2.5000
 30
0.0000
 40
0.0781
 50
95.7068
 51
180.0000
 62
256
  0
ARC
  8
1
  6
CONTINUOUS
 10
2.2503
 20
2.5280
 30
0.0000
 40
0.0500
 50
95.7069
 51
125.7068
 62
2
  0
ARC
  8
1
  6
CONTINUOUS
 10
2.2503
 20
2.5280
 30
0.0000
 40
0.0500
 50
65.7069
 51
95.7069
 62
2
  0
ARC
  8
1
  6
CONTINUOUS
 10
1.5000
 20
1.7469
 30
0.0000
 40
0.0781
 50
101.3315
 51
180.0000
 62
256
  0
ARC
  8
1
  6
CONTINUOUS
 10
1.4945
 20
1.7745
 30
0.0000
 40
0.0500
 50
101.3315
 51
131.3316
 62
2
  0
ARC
  8
1
  6
CONTINUOUS
 10
1.4945
 20
1.7745
 30
0.0000
 40
0.0500
 50
71.3315
 51
101.3315
 62
2
  0
ARC
  8
1
  6
CONTINUOUS
 10
1.7969
 20
1.4500
 30
0.0000
 40
0.0781
 50
89.2406
 51
180.0000
 62
256
  0
ARC
  8
1
  6
CONTINUOUS
 10
1.7972
 20
1.4781
 30
0.0000
 40
0.0500
 50
89.2406
 51
119.2407
 62
2
  0
ARC
  8
1
  6
CONTINUOUS
 10
1.7972
 20
1.4781
 30
0.0000
 40
0.0500
 50
59.2406
 51
89.2406
 62
2
  0
ARC
  8
1
  6
CONTINUOUS
 10
1.7969
 20
0.2000
 30
0.0000
 40
0.0781
 50
97.8457
 51
180.0000
 62
256
  0
ARC
  8
1
  6
CONTINUOUS
 10
1.7930
 20
0.2279
 30
0.0000
 40
0.0500
 50
97.8456
 51
127.8456
 62
2
  0
ARC
  8
1
  6
CONTINUOUS
 10
1.7930
 20
0.2279
 30
0.0000
 40
0.0500
 50
67.8456
 51
97.8456
 62
2
  0
ARC
  8
1
  6
CONTINUOUS
 10
2.5500
 20
2.2031
 30
0.0000
 40
0.0781
 50
86.9801
 51
180.0000
 62
256
  0
ARC
  8
1
  6
CONTINUOUS
 10
2.5515
 20
2.2312
 30
0.0000
 40
0.0500
 50
86.9802
 51
116.9801
 62
2
  0
ARC
  8
1
  6
CONTINUOUS
 10
2.5515
 20
2.2312
 30
0.0000
 40
0.0500
 50
56.9802
 51
86.9802
 62
2
  0
ARC
  8
1
  6
CONTINUOUS
 10
3.8000
 20
2.2031
 30
0.0000
 40
0.0781
 50
95.2559
 51
180.0000
 62
256
  0
ARC
  8
1
  6
CONTINUOUS
 10
3.7974
 20
2.2311
 30
0.0000
 40
0.0500
 50
95.2560
 51
125.2561
 62
2
  0
ARC
  8
1
  6
CONTINUOUS
 10
3.7974
 20
2.2311
 30
0.0000
 40
0.0500
 50
65.2560
 51
95.2560
 62
2
  0
ARC
  8
1
  6
CONTINUOUS
 10
2.0000
 20
2.0000
 30
0.0000
 40
2.0000
 50
206.8183
 51
270.0000
 62
256
  0
ARC
  8
1
  6
CONTINUOUS
 10
0.1259
 20
1.0526
 30
0.0000
 40
0.1000
 50
26.8183
 51
116.8183
 62
2
  0
ARC
  8
1
  6
CONTINUOUS
 10
0.1259
 20
1.0526
 30
0.0000
 40
0.1000
 50
296.8183
 51
26.8183
 62
2
  0
ENDSEC
  0
EOF
