  0
SECTION
  2
HEADER
999
This file was created by ICS preprocess tool.
  9
$ACADVER
  1
AC1003
  9
$EXTMIN
 10
-1.000000
 20
-1.000000
  9
$EXTMAX
 10
1.000000
 20
1.000000
  0
ENDSEC
  0
TABLE
  2
LAYER
 70
	256
  0
LAYER
  2
1
 70
	0
  6
CONTINUOUS
 62
1
  0
ENDTAB
  0
SECTION
  2
ENTITIES
  0
LINE
  8
1
  6
CONTINUOUS
 10
0.0000
 11
48.0000
 20
0.0000
 21
0.0000
 62
8
  0
LINE
  8
1
  6
CONTINUOUS
 10
48.0000
 11
48.0000
 20
0.0000
 21
24.0000
 62
8
  0
LINE
  8
1
  6
CONTINUOUS
 10
48.0000
 11
0.0000
 20
24.0000
 21
24.0000
 62
8
  0
LINE
  8
1
  6
CONTINUOUS
 10
0.0000
 11
0.0000
 20
24.0000
 21
0.0000
 62
8
  0
ENDSEC
  0
SECTION
  2
ENTITIES
  0
LINE
  8
1
  6
CONTINUOUS
 10
2.1287
 11
1.8787
 20
2.0787
 21
2.0787
 62
5
  0
LINE
  8
1
  6
CONTINUOUS
 10
2.1787
 11
2.1787
 20
2.1287
 21
2.3787
 62
5
  0
LINE
  8
1
  6
CONTINUOUS
 10
2.1287
 11
1.8787
 20
2.0787
 21
2.0787
 62
5
  0
LINE
  8
1
  6
CONTINUOUS
 10
2.1787
 11
2.1787
 20
2.1287
 21
2.3787
 62
5
  0
LINE
  8
1
  6
CONTINUOUS
 10
2.1287
 11
2.1287
 20
0.1287
 21
2.1287
 62
5
  0
LINE
  8
1
  6
CONTINUOUS
 10
2.1287
 11
4.1287
 20
2.1287
 21
2.1287
 62
5
  0
LINE
  8
1
  6
CONTINUOUS
 10
3.5619
 11
3.5761
 20
3.5237
 21
3.5377
 62
5
  0
LINE
  8
1
  6
CONTINUOUS
 10
3.5761
 11
3.5621
 20
3.5377
 21
3.5520
 62
5
  0
LINE
  8
1
  6
CONTINUOUS
 10
3.5621
 11
3.5479
 20
3.5520
 21
3.5379
 62
5
  0
LINE
  8
1
  6
CONTINUOUS
 10
0.2958
 11
0.2775
 20
1.3284
 21
1.3203
 62
5
  0
LINE
  8
1
  6
CONTINUOUS
 10
0.2775
 11
0.2856
 20
1.3203
 21
1.3020
 62
5
  0
LINE
  8
1
  6
CONTINUOUS
 10
0.2856
 11
0.3039
 20
1.3020
 21
1.3101
 62
5
  0
ARC
  8
1
  6
CONTINUOUS
 10
1.9217
 20
0.3566
 40
0.0499
 50
97.8219
 51
127.8346
 62
5
  0
ARC
  8
1
  6
CONTINUOUS
 10
1.9217
 20
0.3566
 40
0.0500
 50
67.7943
 51
97.8219
 62
5
  0
ARC
  8
1
  6
CONTINUOUS
 10
1.9259
 20
1.6068
 40
0.0501
 50
89.1980
 51
119.1769
 62
5
  0
ARC
  8
1
  6
CONTINUOUS
 10
1.9259
 20
1.6068
 40
0.0500
 50
59.2326
 51
89.1979
 62
5
  0
ARC
  8
1
  6
CONTINUOUS
 10
1.6232
 20
1.9032
 40
0.0500
 50
101.4225
 51
131.3477
 62
5
  0
ARC
  8
1
  6
CONTINUOUS
 10
1.6232
 20
1.9032
 40
0.0500
 50
71.3112
 51
101.4224
 62
5
  0
ARC
  8
1
  6
CONTINUOUS
 10
1.6242
 20
2.3596
 40
0.0500
 50
99.2172
 51
129.2330
 62
5
  0
ARC
  8
1
  6
CONTINUOUS
 10
1.6242
 20
2.3596
 40
0.0499
 50
69.2425
 51
99.2172
 62
5
  0
ARC
  8
1
  6
CONTINUOUS
 10
1.9240
 20
2.6568
 40
0.0500
 50
93.0971
 51
123.0864
 62
5
  0
ARC
  8
1
  6
CONTINUOUS
 10
1.9240
 20
2.6568
 40
0.0500
 50
63.1275
 51
93.0971
 62
5
  0
ARC
  8
1
  6
CONTINUOUS
 10
2.3790
 20
2.6567
 40
0.0500
 50
95.6306
 51
125.7241
 62
5
  0
ARC
  8
1
  6
CONTINUOUS
 10
2.3790
 20
2.6567
 40
0.0499
 50
65.6884
 51
95.6307
 62
5
  0
ARC
  8
1
  6
CONTINUOUS
 10
2.6802
 20
2.3599
 40
0.0500
 50
87.0173
 51
116.9747
 62
5
  0
ARC
  8
1
  6
CONTINUOUS
 10
2.6802
 20
2.3599
 40
0.0500
 50
57.0099
 51
87.0174
 62
5
  0
ARC
  8
1
  6
CONTINUOUS
 10
3.9261
 20
2.3598
 40
0.0500
 50
95.2775
 51
125.1516
 62
5
  0
ARC
  8
1
  6
CONTINUOUS
 10
3.9261
 20
2.3598
 40
0.0500
 50
65.1770
 51
95.2775
 62
5
  0
ARC
  8
1
  6
CONTINUOUS
 10
2.3832
 20
3.9068
 40
0.0500
 50
87.1318
 51
117.1288
 62
5
  0
ARC
  8
1
  6
CONTINUOUS
 10
2.3832
 20
3.9068
 40
0.0500
 50
57.1683
 51
87.1318
 62
5
  0
ARC
  8
1
  6
CONTINUOUS
 10
1.9260
 20
3.9068
 40
0.0501
 50
89.1980
 51
119.1769
 62
5
  0
ARC
  8
1
  6
CONTINUOUS
 10
1.9260
 20
3.9068
 40
0.0500
 50
59.2324
 51
89.1979
 62
5
  0
ARC
  8
1
  6
CONTINUOUS
 10
0.3744
 20
2.3596
 40
0.0500
 50
98.7462
 51
128.7493
 62
5
  0
ARC
  8
1
  6
CONTINUOUS
 10
0.3744
 20
2.3596
 40
0.0500
 50
68.7732
 51
98.7462
 62
5
  0
ARC
  8
1
  6
CONTINUOUS
 10
0.3793
 20
1.9037
 40
0.0500
 50
88.8543
 51
118.9212
 62
5
  0
ARC
  8
1
  6
CONTINUOUS
 10
0.3793
 20
1.9037
 40
0.0500
 50
58.9183
 51
88.8543
 62
5
  0
ARC
  8
1
  6
CONTINUOUS
 10
0.2546
 20
1.1813
 40
0.1000
 50
26.8214
 51
116.8214
 62
5
  0
ARC
  8
1
  6
CONTINUOUS
 10
0.2546
 20
1.1813
 40
0.1000
 50
296.7956
 51
26.8214
 62
5
  0
ARC
  8
1
  6
CONTINUOUS
 10
1.9217
 20
0.3566
 40
0.0499
 50
97.8219
 51
127.8346
 62
5
  0
ARC
  8
1
  6
CONTINUOUS
 10
1.9217
 20
0.3566
 40
0.0500
 50
67.7943
 51
97.8219
 62
5
  0
ARC
  8
1
  6
CONTINUOUS
 10
1.9259
 20
1.6068
 40
0.0501
 50
89.1980
 51
119.1769
 62
5
  0
ARC
  8
1
  6
CONTINUOUS
 10
1.9259
 20
1.6068
 40
0.0500
 50
59.2326
 51
89.1979
 62
5
  0
ARC
  8
1
  6
CONTINUOUS
 10
1.6232
 20
1.9032
 40
0.0500
 50
101.4225
 51
131.3477
 62
5
  0
ARC
  8
1
  6
CONTINUOUS
 10
1.6232
 20
1.9032
 40
0.0500
 50
71.3112
 51
101.4224
 62
5
  0
ARC
  8
1
  6
CONTINUOUS
 10
1.6242
 20
2.3596
 40
0.0500
 50
99.2172
 51
129.2330
 62
5
  0
ARC
  8
1
  6
CONTINUOUS
 10
1.6242
 20
2.3596
 40
0.0499
 50
69.2425
 51
99.2172
 62
5
  0
ARC
  8
1
  6
CONTINUOUS
 10
1.9240
 20
2.6568
 40
0.0500
 50
93.0971
 51
123.0864
 62
5
  0
ARC
  8
1
  6
CONTINUOUS
 10
1.9240
 20
2.6568
 40
0.0500
 50
63.1275
 51
93.0971
 62
5
  0
ARC
  8
1
  6
CONTINUOUS
 10
2.3790
 20
2.6567
 40
0.0500
 50
95.6306
 51
125.7241
 62
5
  0
ARC
  8
1
  6
CONTINUOUS
 10
2.3790
 20
2.6567
 40
0.0499
 50
65.6884
 51
95.6307
 62
5
  0
ARC
  8
1
  6
CONTINUOUS
 10
2.6802
 20
2.3599
 40
0.0500
 50
87.0173
 51
116.9747
 62
5
  0
ARC
  8
1
  6
CONTINUOUS
 10
2.6802
 20
2.3599
 40
0.0500
 50
57.0099
 51
87.0174
 62
5
  0
ARC
  8
1
  6
CONTINUOUS
 10
3.9261
 20
2.3598
 40
0.0500
 50
95.2775
 51
125.1516
 62
5
  0
ARC
  8
1
  6
CONTINUOUS
 10
3.9261
 20
2.3598
 40
0.0500
 50
65.1770
 51
95.2775
 62
5
  0
ARC
  8
1
  6
CONTINUOUS
 10
2.3832
 20
3.9068
 40
0.0500
 50
87.1318
 51
117.1288
 62
5
  0
ARC
  8
1
  6
CONTINUOUS
 10
2.3832
 20
3.9068
 40
0.0500
 50
57.1683
 51
87.1318
 62
5
  0
ARC
  8
1
  6
CONTINUOUS
 10
1.9260
 20
3.9068
 40
0.0501
 50
89.1980
 51
119.1769
 62
5
  0
ARC
  8
1
  6
CONTINUOUS
 10
1.9260
 20
3.9068
 40
0.0500
 50
59.2324
 51
89.1979
 62
5
  0
ARC
  8
1
  6
CONTINUOUS
 10
0.3744
 20
2.3596
 40
0.0500
 50
98.7462
 51
128.7493
 62
5
  0
ARC
  8
1
  6
CONTINUOUS
 10
0.3744
 20
2.3596
 40
0.0500
 50
68.7732
 51
98.7462
 62
5
  0
ARC
  8
1
  6
CONTINUOUS
 10
0.3793
 20
1.9037
 40
0.0500
 50
88.8543
 51
118.9212
 62
5
  0
ARC
  8
1
  6
CONTINUOUS
 10
0.3793
 20
1.9037
 40
0.0500
 50
58.9183
 51
88.8543
 62
5
  0
ARC
  8
1
  6
CONTINUOUS
 10
0.2546
 20
1.1813
 40
0.1000
 50
26.8214
 51
116.8214
 62
5
  0
ARC
  8
1
  6
CONTINUOUS
 10
2.1287
 20
2.1287
 40
2.0000
 50
206.8174
 51
270.0000
 62
5
  0
ARC
  8
1
  6
CONTINUOUS
 10
2.1287
 20
2.1287
 40
2.0000
 50
0.0000
 51
44.2262
 62
5
  0
ARC
  8
1
  6
CONTINUOUS
 10
2.1287
 20
2.1287
 40
2.0000
 50
44.7974
 51
203.5875
 62
5
  0
ARC
  8
1
  6
CONTINUOUS
 10
2.1287
 20
2.1287
 40
2.0000
 50
204.1609
 51
206.8174
 62
5
  0
ARC
  8
1
  6
CONTINUOUS
 10
0.2546
 20
1.1813
 40
0.1000
 50
296.7956
 51
26.8214
 62
5
  0
ENDSEC
  0
SECTION
  2
ENTITIES
  0
LINE
  8
1
  6
CONTINUOUS
 10
2.1287
 11
2.3787
 20
6.3520
 21
6.3520
 62
5
  0
LINE
  8
1
  6
CONTINUOUS
 10
2.0787
 11
2.0787
 20
6.3020
 21
6.0520
 62
5
  0
LINE
  8
1
  6
CONTINUOUS
 10
2.1287
 11
2.3787
 20
6.3520
 21
6.3520
 62
5
  0
LINE
  8
1
  6
CONTINUOUS
 10
2.0787
 11
2.0787
 20
6.3020
 21
6.0520
 62
5
  0
LINE
  8
1
  6
CONTINUOUS
 10
2.1287
 11
2.1287
 20
8.3020
 21
6.3020
 62
5
  0
LINE
  8
1
  6
CONTINUOUS
 10
2.1287
 11
0.1287
 20
6.3020
 21
6.3020
 62
5
  0
LINE
  8
1
  6
CONTINUOUS
 10
0.6955
 11
0.6813
 20
4.9070
 21
4.8930
 62
5
  0
LINE
  8
1
  6
CONTINUOUS
 10
0.6813
 11
0.6953
 20
4.8930
 21
4.8787
 62
5
  0
LINE
  8
1
  6
CONTINUOUS
 10
0.6953
 11
0.7095
 20
4.8787
 21
4.8928
 62
5
  0
LINE
  8
1
  6
CONTINUOUS
 10
3.9616
 11
3.9799
 20
7.1023
 21
7.1104
 62
5
  0
LINE
  8
1
  6
CONTINUOUS
 10
3.9799
 11
3.9718
 20
7.1104
 21
7.1287
 62
5
  0
LINE
  8
1
  6
CONTINUOUS
 10
3.9718
 11
3.9535
 20
7.1287
 21
7.1206
 62
5
  0
ARC
  8
1
  6
CONTINUOUS
 10
2.3357
 20
8.0741
 40
0.0499
 50
277.8220
 51
307.8345
 62
5
  0
ARC
  8
1
  6
CONTINUOUS
 10
2.3357
 20
8.0741
 40
0.0500
 50
247.7945
 51
277.8218
 62
5
  0
ARC
  8
1
  6
CONTINUOUS
 10
2.3315
 20
6.8239
 40
0.0501
 50
269.1978
 51
299.1768
 62
5
  0
ARC
  8
1
  6
CONTINUOUS
 10
2.3315
 20
6.8239
 40
0.0500
 50
239.2327
 51
269.1979
 62
5
  0
ARC
  8
1
  6
CONTINUOUS
 10
2.6342
 20
6.5275
 40
0.0500
 50
281.4228
 51
311.3475
 62
5
  0
ARC
  8
1
  6
CONTINUOUS
 10
2.6342
 20
6.5275
 40
0.0500
 50
251.3114
 51
281.4224
 62
5
  0
ARC
  8
1
  6
CONTINUOUS
 10
2.6332
 20
6.0711
 40
0.0500
 50
279.2173
 51
309.2328
 62
5
  0
ARC
  8
1
  6
CONTINUOUS
 10
2.6332
 20
6.0711
 40
0.0499
 50
249.2427
 51
279.2173
 62
5
  0
ARC
  8
1
  6
CONTINUOUS
 10
2.3334
 20
5.7739
 40
0.0500
 50
273.0970
 51
303.0864
 62
5
  0
ARC
  8
1
  6
CONTINUOUS
 10
2.3334
 20
5.7739
 40
0.0500
 50
243.1274
 51
273.0970
 62
5
  0
ARC
  8
1
  6
CONTINUOUS
 10
1.8784
 20
5.7740
 40
0.0500
 50
275.6306
 51
305.7241
 62
5
  0
ARC
  8
1
  6
CONTINUOUS
 10
1.8784
 20
5.7740
 40
0.0499
 50
245.6885
 51
275.6307
 62
5
  0
ARC
  8
1
  6
CONTINUOUS
 10
1.5772
 20
6.0708
 40
0.0500
 50
267.0173
 51
296.9750
 62
5
  0
ARC
  8
1
  6
CONTINUOUS
 10
1.5772
 20
6.0708
 40
0.0500
 50
237.0099
 51
267.0174
 62
5
  0
ARC
  8
1
  6
CONTINUOUS
 10
0.3313
 20
6.0709
 40
0.0500
 50
275.2775
 51
305.1514
 62
5
  0
ARC
  8
1
  6
CONTINUOUS
 10
0.3313
 20
6.0709
 40
0.0500
 50
245.1769
 51
275.2775
 62
5
  0
ARC
  8
1
  6
CONTINUOUS
 10
1.8742
 20
4.5239
 40
0.0500
 50
267.1318
 51
297.1288
 62
5
  0
ARC
  8
1
  6
CONTINUOUS
 10
1.8742
 20
4.5239
 40
0.0500
 50
237.1682
 51
267.1318
 62
5
  0
ARC
  8
1
  6
CONTINUOUS
 10
2.3314
 20
4.5239
 40
0.0501
 50
269.1978
 51
299.1765
 62
5
  0
ARC
  8
1
  6
CONTINUOUS
 10
2.3314
 20
4.5239
 40
0.0500
 50
239.2325
 51
269.1979
 62
5
  0
ARC
  8
1
  6
CONTINUOUS
 10
3.8830
 20
6.0711
 40
0.0500
 50
278.7461
 51
308.7487
 62
5
  0
ARC
  8
1
  6
CONTINUOUS
 10
3.8830
 20
6.0711
 40
0.0500
 50
248.7733
 51
278.7459
 62
5
  0
ARC
  8
1
  6
CONTINUOUS
 10
3.8781
 20
6.5270
 40
0.0500
 50
268.8545
 51
298.9214
 62
5
  0
ARC
  8
1
  6
CONTINUOUS
 10
3.8781
 20
6.5270
 40
0.0500
 50
238.9182
 51
268.8543
 62
5
  0
ARC
  8
1
  6
CONTINUOUS
 10
4.0028
 20
7.2494
 40
0.1000
 50
206.8215
 51
296.8213
 62
5
  0
ARC
  8
1
  6
CONTINUOUS
 10
4.0028
 20
7.2494
 40
0.1000
 50
116.7957
 51
206.8215
 62
5
  0
ARC
  8
1
  6
CONTINUOUS
 10
2.3357
 20
8.0741
 40
0.0499
 50
277.8220
 51
307.8345
 62
5
  0
ARC
  8
1
  6
CONTINUOUS
 10
2.3357
 20
8.0741
 40
0.0500
 50
247.7945
 51
277.8218
 62
5
  0
ARC
  8
1
  6
CONTINUOUS
 10
2.3315
 20
6.8239
 40
0.0501
 50
269.1978
 51
299.1768
 62
5
  0
ARC
  8
1
  6
CONTINUOUS
 10
2.3315
 20
6.8239
 40
0.0500
 50
239.2327
 51
269.1979
 62
5
  0
ARC
  8
1
  6
CONTINUOUS
 10
2.6342
 20
6.5275
 40
0.0500
 50
281.4228
 51
311.3475
 62
5
  0
ARC
  8
1
  6
CONTINUOUS
 10
2.6342
 20
6.5275
 40
0.0500
 50
251.3114
 51
281.4224
 62
5
  0
ARC
  8
1
  6
CONTINUOUS
 10
2.6332
 20
6.0711
 40
0.0500
 50
279.2173
 51
309.2328
 62
5
  0
ARC
  8
1
  6
CONTINUOUS
 10
2.6332
 20
6.0711
 40
0.0499
 50
249.2427
 51
279.2173
 62
5
  0
ARC
  8
1
  6
CONTINUOUS
 10
2.3334
 20
5.7739
 40
0.0500
 50
273.0970
 51
303.0864
 62
5
  0
ARC
  8
1
  6
CONTINUOUS
 10
2.3334
 20
5.7739
 40
0.0500
 50
243.1274
 51
273.0970
 62
5
  0
ARC
  8
1
  6
CONTINUOUS
 10
1.8784
 20
5.7740
 40
0.0500
 50
275.6306
 51
305.7241
 62
5
  0
ARC
  8
1
  6
CONTINUOUS
 10
1.8784
 20
5.7740
 40
0.0499
 50
245.6885
 51
275.6307
 62
5
  0
ARC
  8
1
  6
CONTINUOUS
 10
1.5772
 20
6.0708
 40
0.0500
 50
267.0173
 51
296.9750
 62
5
  0
ARC
  8
1
  6
CONTINUOUS
 10
1.5772
 20
6.0708
 40
0.0500
 50
237.0099
 51
267.0174
 62
5
  0
ARC
  8
1
  6
CONTINUOUS
 10
0.3313
 20
6.0709
 40
0.0500
 50
275.2775
 51
305.1514
 62
5
  0
ARC
  8
1
  6
CONTINUOUS
 10
0.3313
 20
6.0709
 40
0.0500
 50
245.1769
 51
275.2775
 62
5
  0
ARC
  8
1
  6
CONTINUOUS
 10
1.8742
 20
4.5239
 40
0.0500
 50
267.1318
 51
297.1288
 62
5
  0
ARC
  8
1
  6
CONTINUOUS
 10
1.8742
 20
4.5239
 40
0.0500
 50
237.1682
 51
267.1318
 62
5
  0
ARC
  8
1
  6
CONTINUOUS
 10
2.3314
 20
4.5239
 40
0.0501
 50
269.1978
 51
299.1765
 62
5
  0
ARC
  8
1
  6
CONTINUOUS
 10
2.3314
 20
4.5239
 40
0.0500
 50
239.2325
 51
269.1979
 62
5
  0
ARC
  8
1
  6
CONTINUOUS
 10
3.8830
 20
6.0711
 40
0.0500
 50
278.7461
 51
308.7487
 62
5
  0
ARC
  8
1
  6
CONTINUOUS
 10
3.8830
 20
6.0711
 40
0.0500
 50
248.7733
 51
278.7459
 62
5
  0
ARC
  8
1
  6
CONTINUOUS
 10
3.8781
 20
6.5270
 40
0.0500
 50
268.8545
 51
298.9214
 62
5
  0
ARC
  8
1
  6
CONTINUOUS
 10
3.8781
 20
6.5270
 40
0.0500
 50
238.9182
 51
268.8543
 62
5
  0
ARC
  8
1
  6
CONTINUOUS
 10
4.0028
 20
7.2494
 40
0.1000
 50
206.8215
 51
296.8213
 62
5
  0
ARC
  8
1
  6
CONTINUOUS
 10
2.1287
 20
6.3020
 40
2.0000
 50
26.8174
 51
90.0000
 62
5
  0
ARC
  8
1
  6
CONTINUOUS
 10
2.1287
 20
6.3020
 40
2.0000
 50
180.0000
 51
224.2262
 62
5
  0
ARC
  8
1
  6
CONTINUOUS
 10
2.1287
 20
6.3020
 40
2.0000
 50
224.7974
 51
23.5875
 62
5
  0
ARC
  8
1
  6
CONTINUOUS
 10
2.1287
 20
6.3020
 40
2.0000
 50
24.1609
 51
26.8174
 62
5
  0
ARC
  8
1
  6
CONTINUOUS
 10
4.0028
 20
7.2494
 40
0.1000
 50
116.7957
 51
206.8215
 62
5
  0
ENDSEC
  0
SECTION
  2
ENTITIES
  0
LINE
  8
1
  6
CONTINUOUS
 10
6.4882
 11
6.4882
 20
5.9870
 21
6.2370
 62
5
  0
LINE
  8
1
  6
CONTINUOUS
 10
6.5382
 11
6.7882
 20
5.9370
 21
5.9370
 62
5
  0
LINE
  8
1
  6
CONTINUOUS
 10
6.4882
 11
6.4882
 20
5.9870
 21
6.2370
 62
5
  0
LINE
  8
1
  6
CONTINUOUS
 10
6.5382
 11
6.7882
 20
5.9370
 21
5.9370
 62
5
  0
LINE
  8
1
  6
CONTINUOUS
 10
4.5382
 11
6.5382
 20
5.9870
 21
5.9870
 62
5
  0
LINE
  8
1
  6
CONTINUOUS
 10
6.5382
 11
6.5382
 20
5.9870
 21
3.9870
 62
5
  0
LINE
  8
1
  6
CONTINUOUS
 10
7.9332
 11
7.9472
 20
4.5538
 21
4.5396
 62
5
  0
LINE
  8
1
  6
CONTINUOUS
 10
7.9472
 11
7.9615
 20
4.5396
 21
4.5536
 62
5
  0
LINE
  8
1
  6
CONTINUOUS
 10
7.9615
 11
7.9474
 20
4.5536
 21
4.5678
 62
5
  0
LINE
  8
1
  6
CONTINUOUS
 10
5.7379
 11
5.7298
 20
7.8199
 21
7.8382
 62
5
  0
LINE
  8
1
  6
CONTINUOUS
 10
5.7298
 11
5.7115
 20
7.8382
 21
7.8301
 62
5
  0
LINE
  8
1
  6
CONTINUOUS
 10
5.7115
 11
5.7196
 20
7.8301
 21
7.8118
 62
5
  0
ARC
  8
1
  6
CONTINUOUS
 10
4.7661
 20
6.1940
 40
0.0499
 50
7.8223
 51
37.8347
 62
5
  0
ARC
  8
1
  6
CONTINUOUS
 10
4.7661
 20
6.1940
 40
0.0500
 50
337.7944
 51
7.8222
 62
5
  0
ARC
  8
1
  6
CONTINUOUS
 10
6.0163
 20
6.1898
 40
0.0501
 50
359.1982
 51
29.1770
 62
5
  0
ARC
  8
1
  6
CONTINUOUS
 10
6.0163
 20
6.1898
 40
0.0500
 50
329.2329
 51
359.1979
 62
5
  0
ARC
  8
1
  6
CONTINUOUS
 10
6.3127
 20
6.4925
 40
0.0500
 50
11.4228
 51
41.3478
 62
5
  0
ARC
  8
1
  6
CONTINUOUS
 10
6.3127
 20
6.4925
 40
0.0500
 50
341.3115
 51
11.4224
 62
5
  0
ARC
  8
1
  6
CONTINUOUS
 10
6.7691
 20
6.4915
 40
0.0500
 50
9.2171
 51
39.2332
 62
5
  0
ARC
  8
1
  6
CONTINUOUS
 10
6.7691
 20
6.4915
 40
0.0499
 50
339.2423
 51
9.2171
 62
5
  0
ARC
  8
1
  6
CONTINUOUS
 10
7.0663
 20
6.1917
 40
0.0500
 50
3.0969
 51
33.0861
 62
5
  0
ARC
  8
1
  6
CONTINUOUS
 10
7.0663
 20
6.1917
 40
0.0500
 50
333.1274
 51
3.0970
 62
5
  0
ARC
  8
1
  6
CONTINUOUS
 10
7.0662
 20
5.7367
 40
0.0500
 50
5.6306
 51
35.7243
 62
5
  0
ARC
  8
1
  6
CONTINUOUS
 10
7.0662
 20
5.7367
 40
0.0499
 50
335.6880
 51
5.6307
 62
5
  0
ARC
  8
1
  6
CONTINUOUS
 10
6.7694
 20
5.4355
 40
0.0500
 50
357.0179
 51
26.9747
 62
5
  0
ARC
  8
1
  6
CONTINUOUS
 10
6.7694
 20
5.4355
 40
0.0500
 50
327.0101
 51
357.0177
 62
5
  0
ARC
  8
1
  6
CONTINUOUS
 10
6.7693
 20
4.1896
 40
0.0500
 50
5.2774
 51
35.1517
 62
5
  0
ARC
  8
1
  6
CONTINUOUS
 10
6.7693
 20
4.1896
 40
0.0500
 50
335.1774
 51
5.2775
 62
5
  0
ARC
  8
1
  6
CONTINUOUS
 10
8.3163
 20
5.7325
 40
0.0500
 50
357.1318
 51
27.1286
 62
5
  0
ARC
  8
1
  6
CONTINUOUS
 10
8.3163
 20
5.7325
 40
0.0500
 50
327.1685
 51
357.1318
 62
5
  0
ARC
  8
1
  6
CONTINUOUS
 10
8.3163
 20
6.1897
 40
0.0501
 50
359.1982
 51
29.1765
 62
5
  0
ARC
  8
1
  6
CONTINUOUS
 10
8.3163
 20
6.1897
 40
0.0500
 50
329.2325
 51
359.1979
 62
5
  0
ARC
  8
1
  6
CONTINUOUS
 10
6.7691
 20
7.7413
 40
0.0500
 50
8.7459
 51
38.7497
 62
5
  0
ARC
  8
1
  6
CONTINUOUS
 10
6.7691
 20
7.7413
 40
0.0500
 50
338.7728
 51
8.7461
 62
5
  0
ARC
  8
1
  6
CONTINUOUS
 10
6.3132
 20
7.7364
 40
0.0500
 50
358.8540
 51
28.9212
 62
5
  0
ARC
  8
1
  6
CONTINUOUS
 10
6.3132
 20
7.7364
 40
0.0500
 50
328.9180
 51
358.8543
 62
5
  0
ARC
  8
1
  6
CONTINUOUS
 10
5.5908
 20
7.8611
 40
0.1000
 50
296.8215
 51
26.8213
 62
5
  0
ARC
  8
1
  6
CONTINUOUS
 10
5.5908
 20
7.8611
 40
0.1000
 50
206.7958
 51
296.8215
 62
5
  0
ARC
  8
1
  6
CONTINUOUS
 10
4.7661
 20
6.1940
 40
0.0499
 50
7.8223
 51
37.8347
 62
5
  0
ARC
  8
1
  6
CONTINUOUS
 10
4.7661
 20
6.1940
 40
0.0500
 50
337.7944
 51
7.8222
 62
5
  0
ARC
  8
1
  6
CONTINUOUS
 10
6.0163
 20
6.1898
 40
0.0501
 50
359.1982
 51
29.1770
 62
5
  0
ARC
  8
1
  6
CONTINUOUS
 10
6.0163
 20
6.1898
 40
0.0500
 50
329.2329
 51
359.1979
 62
5
  0
ARC
  8
1
  6
CONTINUOUS
 10
6.3127
 20
6.4925
 40
0.0500
 50
11.4228
 51
41.3478
 62
5
  0
ARC
  8
1
  6
CONTINUOUS
 10
6.3127
 20
6.4925
 40
0.0500
 50
341.3115
 51
11.4224
 62
5
  0
ARC
  8
1
  6
CONTINUOUS
 10
6.7691
 20
6.4915
 40
0.0500
 50
9.2171
 51
39.2332
 62
5
  0
ARC
  8
1
  6
CONTINUOUS
 10
6.7691
 20
6.4915
 40
0.0499
 50
339.2423
 51
9.2171
 62
5
  0
ARC
  8
1
  6
CONTINUOUS
 10
7.0663
 20
6.1917
 40
0.0500
 50
3.0969
 51
33.0861
 62
5
  0
ARC
  8
1
  6
CONTINUOUS
 10
7.0663
 20
6.1917
 40
0.0500
 50
333.1274
 51
3.0970
 62
5
  0
ARC
  8
1
  6
CONTINUOUS
 10
7.0662
 20
5.7367
 40
0.0500
 50
5.6306
 51
35.7243
 62
5
  0
ARC
  8
1
  6
CONTINUOUS
 10
7.0662
 20
5.7367
 40
0.0499
 50
335.6880
 51
5.6307
 62
5
  0
ARC
  8
1
  6
CONTINUOUS
 10
6.7694
 20
5.4355
 40
0.0500
 50
357.0179
 51
26.9747
 62
5
  0
ARC
  8
1
  6
CONTINUOUS
 10
6.7694
 20
5.4355
 40
0.0500
 50
327.0101
 51
357.0177
 62
5
  0
ARC
  8
1
  6
CONTINUOUS
 10
6.7693
 20
4.1896
 40
0.0500
 50
5.2774
 51
35.1517
 62
5
  0
ARC
  8
1
  6
CONTINUOUS
 10
6.7693
 20
4.1896
 40
0.0500
 50
335.1774
 51
5.2775
 62
5
  0
ARC
  8
1
  6
CONTINUOUS
 10
8.3163
 20
5.7325
 40
0.0500
 50
357.1318
 51
27.1286
 62
5
  0
ARC
  8
1
  6
CONTINUOUS
 10
8.3163
 20
5.7325
 40
0.0500
 50
327.1685
 51
357.1318
 62
5
  0
ARC
  8
1
  6
CONTINUOUS
 10
8.3163
 20
6.1897
 40
0.0501
 50
359.1982
 51
29.1765
 62
5
  0
ARC
  8
1
  6
CONTINUOUS
 10
8.3163
 20
6.1897
 40
0.0500
 50
329.2325
 51
359.1979
 62
5
  0
ARC
  8
1
  6
CONTINUOUS
 10
6.7691
 20
7.7413
 40
0.0500
 50
8.7459
 51
38.7497
 62
5
  0
ARC
  8
1
  6
CONTINUOUS
 10
6.7691
 20
7.7413
 40
0.0500
 50
338.7728
 51
8.7461
 62
5
  0
ARC
  8
1
  6
CONTINUOUS
 10
6.3132
 20
7.7364
 40
0.0500
 50
358.8540
 51
28.9212
 62
5
  0
ARC
  8
1
  6
CONTINUOUS
 10
6.3132
 20
7.7364
 40
0.0500
 50
328.9180
 51
358.8543
 62
5
  0
ARC
  8
1
  6
CONTINUOUS
 10
5.5908
 20
7.8611
 40
0.1000
 50
296.8215
 51
26.8213
 62
5
  0
ARC
  8
1
  6
CONTINUOUS
 10
6.5382
 20
5.9870
 40
2.0000
 50
116.8174
 51
180.0000
 62
5
  0
ARC
  8
1
  6
CONTINUOUS
 10
6.5382
 20
5.9870
 40
2.0000
 50
270.0000
 51
314.2262
 62
5
  0
ARC
  8
1
  6
CONTINUOUS
 10
6.5382
 20
5.9870
 40
2.0000
 50
314.7974
 51
113.5876
 62
5
  0
ARC
  8
1
  6
CONTINUOUS
 10
6.5382
 20
5.9870
 40
2.0000
 50
114.1609
 51
116.8174
 62
5
  0
ARC
  8
1
  6
CONTINUOUS
 10
5.5908
 20
7.8611
 40
0.1000
 50
206.7958
 51
296.8215
 62
5
  0
ENDSEC
  0
SECTION
  2
ENTITIES
  0
LINE
  8
1
  6
CONTINUOUS
 10
6.3520
 11
6.3520
 20
2.1287
 21
1.8787
 62
5
  0
LINE
  8
1
  6
CONTINUOUS
 10
6.3020
 11
6.0520
 20
2.1787
 21
2.1787
 62
5
  0
LINE
  8
1
  6
CONTINUOUS
 10
6.3520
 11
6.3520
 20
2.1287
 21
1.8787
 62
5
  0
LINE
  8
1
  6
CONTINUOUS
 10
6.3020
 11
6.0520
 20
2.1787
 21
2.1787
 62
5
  0
LINE
  8
1
  6
CONTINUOUS
 10
8.3020
 11
6.3020
 20
2.1287
 21
2.1287
 62
5
  0
LINE
  8
1
  6
CONTINUOUS
 10
6.3020
 11
6.3020
 20
2.1287
 21
4.1287
 62
5
  0
LINE
  8
1
  6
CONTINUOUS
 10
4.9070
 11
4.8930
 20
3.5619
 21
3.5761
 62
5
  0
LINE
  8
1
  6
CONTINUOUS
 10
4.8930
 11
4.8787
 20
3.5761
 21
3.5621
 62
5
  0
LINE
  8
1
  6
CONTINUOUS
 10
4.8787
 11
4.8928
 20
3.5621
 21
3.5479
 62
5
  0
LINE
  8
1
  6
CONTINUOUS
 10
7.1023
 11
7.1104
 20
0.2958
 21
0.2775
 62
5
  0
LINE
  8
1
  6
CONTINUOUS
 10
7.1104
 11
7.1287
 20
0.2775
 21
0.2856
 62
5
  0
LINE
  8
1
  6
CONTINUOUS
 10
7.1287
 11
7.1206
 20
0.2856
 21
0.3039
 62
5
  0
ARC
  8
1
  6
CONTINUOUS
 10
8.0741
 20
1.9217
 40
0.0499
 50
187.8218
 51
217.8346
 62
5
  0
ARC
  8
1
  6
CONTINUOUS
 10
8.0741
 20
1.9217
 40
0.0500
 50
157.7946
 51
187.8218
 62
5
  0
ARC
  8
1
  6
CONTINUOUS
 10
6.8239
 20
1.9259
 40
0.0501
 50
179.1981
 51
209.1768
 62
5
  0
ARC
  8
1
  6
CONTINUOUS
 10
6.8239
 20
1.9259
 40
0.0500
 50
149.2326
 51
179.1979
 62
5
  0
ARC
  8
1
  6
CONTINUOUS
 10
6.5275
 20
1.6232
 40
0.0500
 50
191.4225
 51
221.3475
 62
5
  0
ARC
  8
1
  6
CONTINUOUS
 10
6.5275
 20
1.6232
 40
0.0500
 50
161.3113
 51
191.4223
 62
5
  0
ARC
  8
1
  6
CONTINUOUS
 10
6.0711
 20
1.6242
 40
0.0500
 50
189.2172
 51
219.2328
 62
5
  0
ARC
  8
1
  6
CONTINUOUS
 10
6.0711
 20
1.6242
 40
0.0499
 50
159.2427
 51
189.2171
 62
5
  0
ARC
  8
1
  6
CONTINUOUS
 10
5.7739
 20
1.9240
 40
0.0500
 50
183.0971
 51
213.0865
 62
5
  0
ARC
  8
1
  6
CONTINUOUS
 10
5.7739
 20
1.9240
 40
0.0500
 50
153.1275
 51
183.0972
 62
5
  0
ARC
  8
1
  6
CONTINUOUS
 10
5.7740
 20
2.3790
 40
0.0500
 50
185.6306
 51
215.7241
 62
5
  0
ARC
  8
1
  6
CONTINUOUS
 10
5.7740
 20
2.3790
 40
0.0499
 50
155.6886
 51
185.6307
 62
5
  0
ARC
  8
1
  6
CONTINUOUS
 10
6.0708
 20
2.6802
 40
0.0500
 50
177.0174
 51
206.9750
 62
5
  0
ARC
  8
1
  6
CONTINUOUS
 10
6.0708
 20
2.6802
 40
0.0500
 50
147.0099
 51
177.0174
 62
5
  0
ARC
  8
1
  6
CONTINUOUS
 10
6.0709
 20
3.9261
 40
0.0500
 50
185.2775
 51
215.1514
 62
5
  0
ARC
  8
1
  6
CONTINUOUS
 10
6.0709
 20
3.9261
 40
0.0500
 50
155.1769
 51
185.2775
 62
5
  0
ARC
  8
1
  6
CONTINUOUS
 10
4.5239
 20
2.3832
 40
0.0500
 50
177.1318
 51
207.1288
 62
5
  0
ARC
  8
1
  6
CONTINUOUS
 10
4.5239
 20
2.3832
 40
0.0500
 50
147.1682
 51
177.1318
 62
5
  0
ARC
  8
1
  6
CONTINUOUS
 10
4.5239
 20
1.9260
 40
0.0501
 50
179.1981
 51
209.1768
 62
5
  0
ARC
  8
1
  6
CONTINUOUS
 10
4.5239
 20
1.9260
 40
0.0500
 50
149.2326
 51
179.1979
 62
5
  0
ARC
  8
1
  6
CONTINUOUS
 10
6.0711
 20
0.3744
 40
0.0500
 50
188.7462
 51
218.7489
 62
5
  0
ARC
  8
1
  6
CONTINUOUS
 10
6.0711
 20
0.3744
 40
0.0500
 50
158.7733
 51
188.7461
 62
5
  0
ARC
  8
1
  6
CONTINUOUS
 10
6.5270
 20
0.3793
 40
0.0500
 50
178.8543
 51
208.9212
 62
5
  0
ARC
  8
1
  6
CONTINUOUS
 10
6.5270
 20
0.3793
 40
0.0500
 50
148.9182
 51
178.8543
 62
5
  0
ARC
  8
1
  6
CONTINUOUS
 10
7.2494
 20
0.2546
 40
0.1000
 50
116.8215
 51
206.8214
 62
5
  0
ARC
  8
1
  6
CONTINUOUS
 10
7.2494
 20
0.2546
 40
0.1000
 50
26.7956
 51
116.8215
 62
5
  0
ARC
  8
1
  6
CONTINUOUS
 10
8.0741
 20
1.9217
 40
0.0499
 50
187.8218
 51
217.8346
 62
5
  0
ARC
  8
1
  6
CONTINUOUS
 10
8.0741
 20
1.9217
 40
0.0500
 50
157.7946
 51
187.8218
 62
5
  0
ARC
  8
1
  6
CONTINUOUS
 10
6.8239
 20
1.9259
 40
0.0501
 50
179.1981
 51
209.1768
 62
5
  0
ARC
  8
1
  6
CONTINUOUS
 10
6.8239
 20
1.9259
 40
0.0500
 50
149.2326
 51
179.1979
 62
5
  0
ARC
  8
1
  6
CONTINUOUS
 10
6.5275
 20
1.6232
 40
0.0500
 50
191.4225
 51
221.3475
 62
5
  0
ARC
  8
1
  6
CONTINUOUS
 10
6.5275
 20
1.6232
 40
0.0500
 50
161.3113
 51
191.4223
 62
5
  0
ARC
  8
1
  6
CONTINUOUS
 10
6.0711
 20
1.6242
 40
0.0500
 50
189.2172
 51
219.2328
 62
5
  0
ARC
  8
1
  6
CONTINUOUS
 10
6.0711
 20
1.6242
 40
0.0499
 50
159.2427
 51
189.2171
 62
5
  0
ARC
  8
1
  6
CONTINUOUS
 10
5.7739
 20
1.9240
 40
0.0500
 50
183.0971
 51
213.0865
 62
5
  0
ARC
  8
1
  6
CONTINUOUS
 10
5.7739
 20
1.9240
 40
0.0500
 50
153.1275
 51
183.0972
 62
5
  0
ARC
  8
1
  6
CONTINUOUS
 10
5.7740
 20
2.3790
 40
0.0500
 50
185.6306
 51
215.7241
 62
5
  0
ARC
  8
1
  6
CONTINUOUS
 10
5.7740
 20
2.3790
 40
0.0499
 50
155.6886
 51
185.6307
 62
5
  0
ARC
  8
1
  6
CONTINUOUS
 10
6.0708
 20
2.6802
 40
0.0500
 50
177.0174
 51
206.9750
 62
5
  0
ARC
  8
1
  6
CONTINUOUS
 10
6.0708
 20
2.6802
 40
0.0500
 50
147.0099
 51
177.0174
 62
5
  0
ARC
  8
1
  6
CONTINUOUS
 10
6.0709
 20
3.9261
 40
0.0500
 50
185.2775
 51
215.1514
 62
5
  0
ARC
  8
1
  6
CONTINUOUS
 10
6.0709
 20
3.9261
 40
0.0500
 50
155.1769
 51
185.2775
 62
5
  0
ARC
  8
1
  6
CONTINUOUS
 10
4.5239
 20
2.3832
 40
0.0500
 50
177.1318
 51
207.1288
 62
5
  0
ARC
  8
1
  6
CONTINUOUS
 10
4.5239
 20
2.3832
 40
0.0500
 50
147.1682
 51
177.1318
 62
5
  0
ARC
  8
1
  6
CONTINUOUS
 10
4.5239
 20
1.9260
 40
0.0501
 50
179.1981
 51
209.1768
 62
5
  0
ARC
  8
1
  6
CONTINUOUS
 10
4.5239
 20
1.9260
 40
0.0500
 50
149.2326
 51
179.1979
 62
5
  0
ARC
  8
1
  6
CONTINUOUS
 10
6.0711
 20
0.3744
 40
0.0500
 50
188.7462
 51
218.7489
 62
5
  0
ARC
  8
1
  6
CONTINUOUS
 10
6.0711
 20
0.3744
 40
0.0500
 50
158.7733
 51
188.7461
 62
5
  0
ARC
  8
1
  6
CONTINUOUS
 10
6.5270
 20
0.3793
 40
0.0500
 50
178.8543
 51
208.9212
 62
5
  0
ARC
  8
1
  6
CONTINUOUS
 10
6.5270
 20
0.3793
 40
0.0500
 50
148.9182
 51
178.8543
 62
5
  0
ARC
  8
1
  6
CONTINUOUS
 10
7.2494
 20
0.2546
 40
0.1000
 50
116.8215
 51
206.8214
 62
5
  0
ARC
  8
1
  6
CONTINUOUS
 10
6.3020
 20
2.1287
 40
2.0000
 50
296.8174
 51
0.0000
 62
5
  0
ARC
  8
1
  6
CONTINUOUS
 10
6.3020
 20
2.1287
 40
2.0000
 50
90.0000
 51
134.2262
 62
5
  0
ARC
  8
1
  6
CONTINUOUS
 10
6.3020
 20
2.1287
 40
2.0000
 50
134.7974
 51
293.5875
 62
5
  0
ARC
  8
1
  6
CONTINUOUS
 10
6.3020
 20
2.1287
 40
2.0000
 50
294.1609
 51
296.8174
 62
5
  0
ARC
  8
1
  6
CONTINUOUS
 10
7.2494
 20
0.2546
 40
0.1000
 50
26.7956
 51
116.8215
 62
5
  0
ENDSEC
  0
SECTION
  2
ENTITIES
  0
LINE
  8
1
  6
CONTINUOUS
 10
8.5354
 11
8.5354
 20
2.2075
 21
2.4575
 62
5
  0
LINE
  8
1
  6
CONTINUOUS
 10
8.5854
 11
8.8354
 20
2.1575
 21
2.1575
 62
5
  0
LINE
  8
1
  6
CONTINUOUS
 10
8.5354
 11
8.5354
 20
2.2075
 21
2.4575
 62
5
  0
LINE
  8
1
  6
CONTINUOUS
 10
8.5854
 11
8.8354
 20
2.1575
 21
2.1575
 62
5
  0
LINE
  8
1
  6
CONTINUOUS
 10
6.5854
 11
8.5854
 20
2.2075
 21
2.2075
 62
5
  0
LINE
  8
1
  6
CONTINUOUS
 10
8.5854
 11
8.5854
 20
2.2075
 21
0.2075
 62
5
  0
LINE
  8
1
  6
CONTINUOUS
 10
9.9804
 11
9.9944
 20
0.7743
 21
0.7601
 62
5
  0
LINE
  8
1
  6
CONTINUOUS
 10
9.9944
 11
10.0087
 20
0.7601
 21
0.7741
 62
5
  0
LINE
  8
1
  6
CONTINUOUS
 10
10.0087
 11
9.9946
 20
0.7741
 21
0.7883
 62
5
  0
LINE
  8
1
  6
CONTINUOUS
 10
7.7851
 11
7.7770
 20
4.0404
 21
4.0587
 62
5
  0
LINE
  8
1
  6
CONTINUOUS
 10
7.7770
 11
7.7587
 20
4.0587
 21
4.0506
 62
5
  0
LINE
  8
1
  6
CONTINUOUS
 10
7.7587
 11
7.7668
 20
4.0506
 21
4.0323
 62
5
  0
ARC
  8
1
  6
CONTINUOUS
 10
6.8133
 20
2.4145
 40
0.0499
 50
7.8221
 51
37.8345
 62
5
  0
ARC
  8
1
  6
CONTINUOUS
 10
6.8133
 20
2.4145
 40
0.0500
 50
337.7941
 51
7.8219
 62
5
  0
ARC
  8
1
  6
CONTINUOUS
 10
8.0635
 20
2.4103
 40
0.0501
 50
359.1977
 51
29.1768
 62
5
  0
ARC
  8
1
  6
CONTINUOUS
 10
8.0635
 20
2.4103
 40
0.0500
 50
329.2327
 51
359.1979
 62
5
  0
ARC
  8
1
  6
CONTINUOUS
 10
8.3599
 20
2.7130
 40
0.0500
 50
11.4229
 51
41.3482
 62
5
  0
ARC
  8
1
  6
CONTINUOUS
 10
8.3599
 20
2.7130
 40
0.0500
 50
341.3111
 51
11.4225
 62
5
  0
ARC
  8
1
  6
CONTINUOUS
 10
8.8163
 20
2.7120
 40
0.0500
 50
9.2174
 51
39.2335
 62
5
  0
ARC
  8
1
  6
CONTINUOUS
 10
8.8163
 20
2.7120
 40
0.0499
 50
339.2423
 51
9.2173
 62
5
  0
ARC
  8
1
  6
CONTINUOUS
 10
9.1135
 20
2.4122
 40
0.0500
 50
3.0969
 51
33.0864
 62
5
  0
ARC
  8
1
  6
CONTINUOUS
 10
9.1135
 20
2.4122
 40
0.0500
 50
333.1274
 51
3.0970
 62
5
  0
ARC
  8
1
  6
CONTINUOUS
 10
9.1134
 20
1.9572
 40
0.0500
 50
5.6306
 51
35.7241
 62
5
  0
ARC
  8
1
  6
CONTINUOUS
 10
9.1134
 20
1.9572
 40
0.0499
 50
335.6885
 51
5.6307
 62
5
  0
ARC
  8
1
  6
CONTINUOUS
 10
8.8166
 20
1.6560
 40
0.0500
 50
357.0174
 51
26.9745
 62
5
  0
ARC
  8
1
  6
CONTINUOUS
 10
8.8166
 20
1.6560
 40
0.0500
 50
327.0099
 51
357.0174
 62
5
  0
ARC
  8
1
  6
CONTINUOUS
 10
8.8165
 20
0.4101
 40
0.0500
 50
5.2774
 51
35.1514
 62
5
  0
ARC
  8
1
  6
CONTINUOUS
 10
8.8165
 20
0.4101
 40
0.0500
 50
335.1773
 51
5.2774
 62
5
  0
ARC
  8
1
  6
CONTINUOUS
 10
10.3635
 20
1.9530
 40
0.0500
 50
357.1318
 51
27.1290
 62
5
  0
ARC
  8
1
  6
CONTINUOUS
 10
10.3635
 20
1.9530
 40
0.0500
 50
327.1682
 51
357.1318
 62
5
  0
ARC
  8
1
  6
CONTINUOUS
 10
10.3635
 20
2.4102
 40
0.0501
 50
359.1977
 51
29.1771
 62
5
  0
ARC
  8
1
  6
CONTINUOUS
 10
10.3635
 20
2.4102
 40
0.0500
 50
329.2319
 51
359.1979
 62
5
  0
ARC
  8
1
  6
CONTINUOUS
 10
8.8163
 20
3.9618
 40
0.0500
 50
8.7462
 51
38.7494
 62
5
  0
ARC
  8
1
  6
CONTINUOUS
 10
8.8163
 20
3.9618
 40
0.0500
 50
338.7731
 51
8.7461
 62
5
  0
ARC
  8
1
  6
CONTINUOUS
 10
8.3604
 20
3.9569
 40
0.0500
 50
358.8543
 51
28.9217
 62
5
  0
ARC
  8
1
  6
CONTINUOUS
 10
8.3604
 20
3.9569
 40
0.0500
 50
328.9185
 51
358.8543
 62
5
  0
ARC
  8
1
  6
CONTINUOUS
 10
7.6380
 20
4.0816
 40
0.1000
 50
296.8214
 51
26.8213
 62
5
  0
ARC
  8
1
  6
CONTINUOUS
 10
7.6380
 20
4.0816
 40
0.1000
 50
206.7958
 51
296.8214
 62
5
  0
ARC
  8
1
  6
CONTINUOUS
 10
6.8133
 20
2.4145
 40
0.0499
 50
7.8221
 51
37.8345
 62
5
  0
ARC
  8
1
  6
CONTINUOUS
 10
6.8133
 20
2.4145
 40
0.0500
 50
337.7941
 51
7.8219
 62
5
  0
ARC
  8
1
  6
CONTINUOUS
 10
8.0635
 20
2.4103
 40
0.0501
 50
359.1977
 51
29.1768
 62
5
  0
ARC
  8
1
  6
CONTINUOUS
 10
8.0635
 20
2.4103
 40
0.0500
 50
329.2327
 51
359.1979
 62
5
  0
ARC
  8
1
  6
CONTINUOUS
 10
8.3599
 20
2.7130
 40
0.0500
 50
11.4229
 51
41.3482
 62
5
  0
ARC
  8
1
  6
CONTINUOUS
 10
8.3599
 20
2.7130
 40
0.0500
 50
341.3111
 51
11.4225
 62
5
  0
ARC
  8
1
  6
CONTINUOUS
 10
8.8163
 20
2.7120
 40
0.0500
 50
9.2174
 51
39.2335
 62
5
  0
ARC
  8
1
  6
CONTINUOUS
 10
8.8163
 20
2.7120
 40
0.0499
 50
339.2423
 51
9.2173
 62
5
  0
ARC
  8
1
  6
CONTINUOUS
 10
9.1135
 20
2.4122
 40
0.0500
 50
3.0969
 51
33.0864
 62
5
  0
ARC
  8
1
  6
CONTINUOUS
 10
9.1135
 20
2.4122
 40
0.0500
 50
333.1274
 51
3.0970
 62
5
  0
ARC
  8
1
  6
CONTINUOUS
 10
9.1134
 20
1.9572
 40
0.0500
 50
5.6306
 51
35.7241
 62
5
  0
ARC
  8
1
  6
CONTINUOUS
 10
9.1134
 20
1.9572
 40
0.0499
 50
335.6885
 51
5.6307
 62
5
  0
ARC
  8
1
  6
CONTINUOUS
 10
8.8166
 20
1.6560
 40
0.0500
 50
357.0174
 51
26.9745
 62
5
  0
ARC
  8
1
  6
CONTINUOUS
 10
8.8166
 20
1.6560
 40
0.0500
 50
327.0099
 51
357.0174
 62
5
  0
ARC
  8
1
  6
CONTINUOUS
 10
8.8165
 20
0.4101
 40
0.0500
 50
5.2774
 51
35.1514
 62
5
  0
ARC
  8
1
  6
CONTINUOUS
 10
8.8165
 20
0.4101
 40
0.0500
 50
335.1773
 51
5.2774
 62
5
  0
ARC
  8
1
  6
CONTINUOUS
 10
10.3635
 20
1.9530
 40
0.0500
 50
357.1318
 51
27.1290
 62
5
  0
ARC
  8
1
  6
CONTINUOUS
 10
10.3635
 20
1.9530
 40
0.0500
 50
327.1682
 51
357.1318
 62
5
  0
ARC
  8
1
  6
CONTINUOUS
 10
10.3635
 20
2.4102
 40
0.0501
 50
359.1977
 51
29.1771
 62
5
  0
ARC
  8
1
  6
CONTINUOUS
 10
10.3635
 20
2.4102
 40
0.0500
 50
329.2319
 51
359.1979
 62
5
  0
ARC
  8
1
  6
CONTINUOUS
 10
8.8163
 20
3.9618
 40
0.0500
 50
8.7462
 51
38.7494
 62
5
  0
ARC
  8
1
  6
CONTINUOUS
 10
8.8163
 20
3.9618
 40
0.0500
 50
338.7731
 51
8.7461
 62
5
  0
ARC
  8
1
  6
CONTINUOUS
 10
8.3604
 20
3.9569
 40
0.0500
 50
358.8543
 51
28.9217
 62
5
  0
ARC
  8
1
  6
CONTINUOUS
 10
8.3604
 20
3.9569
 40
0.0500
 50
328.9185
 51
358.8543
 62
5
  0
ARC
  8
1
  6
CONTINUOUS
 10
7.6380
 20
4.0816
 40
0.1000
 50
296.8214
 51
26.8213
 62
5
  0
ARC
  8
1
  6
CONTINUOUS
 10
8.5854
 20
2.2075
 40
2.0000
 50
116.8174
 51
180.0000
 62
5
  0
ARC
  8
1
  6
CONTINUOUS
 10
8.5854
 20
2.2075
 40
2.0000
 50
270.0000
 51
314.2262
 62
5
  0
ARC
  8
1
  6
CONTINUOUS
 10
8.5854
 20
2.2075
 40
2.0000
 50
314.7975
 51
113.5875
 62
5
  0
ARC
  8
1
  6
CONTINUOUS
 10
8.5854
 20
2.2075
 40
2.0000
 50
114.1609
 51
116.8174
 62
5
  0
ARC
  8
1
  6
CONTINUOUS
 10
7.6380
 20
4.0816
 40
0.1000
 50
206.7958
 51
296.8214
 62
5
  0
ENDSEC
  0
SECTION
  2
ENTITIES
  0
LINE
  8
1
  6
CONTINUOUS
 10
10.6614
 11
10.6614
 20
5.7508
 21
6.0008
 62
5
  0
LINE
  8
1
  6
CONTINUOUS
 10
10.7114
 11
10.9614
 20
5.7008
 21
5.7008
 62
5
  0
LINE
  8
1
  6
CONTINUOUS
 10
10.6614
 11
10.6614
 20
5.7508
 21
6.0008
 62
5
  0
LINE
  8
1
  6
CONTINUOUS
 10
10.7114
 11
10.9614
 20
5.7008
 21
5.7008
 62
5
  0
LINE
  8
1
  6
CONTINUOUS
 10
8.7114
 11
10.7114
 20
5.7508
 21
5.7508
 62
5
  0
LINE
  8
1
  6
CONTINUOUS
 10
10.7114
 11
10.7114
 20
5.7508
 21
3.7508
 62
5
  0
LINE
  8
1
  6
CONTINUOUS
 10
12.1064
 11
12.1204
 20
4.3176
 21
4.3034
 62
5
  0
LINE
  8
1
  6
CONTINUOUS
 10
12.1204
 11
12.1347
 20
4.3034
 21
4.3174
 62
5
  0
LINE
  8
1
  6
CONTINUOUS
 10
12.1347
 11
12.1206
 20
4.3174
 21
4.3316
 62
5
  0
LINE
  8
1
  6
CONTINUOUS
 10
9.9111
 11
9.9030
 20
7.5837
 21
7.6020
 62
5
  0
LINE
  8
1
  6
CONTINUOUS
 10
9.9030
 11
9.8847
 20
7.6020
 21
7.5939
 62
5
  0
LINE
  8
1
  6
CONTINUOUS
 10
9.8847
 11
9.8928
 20
7.5939
 21
7.5756
 62
5
  0
ARC
  8
1
  6
CONTINUOUS
 10
8.9393
 20
5.9578
 40
0.0499
 50
7.8222
 51
37.8347
 62
5
  0
ARC
  8
1
  6
CONTINUOUS
 10
8.9393
 20
5.9578
 40
0.0500
 50
337.7948
 51
7.8221
 62
5
  0
ARC
  8
1
  6
CONTINUOUS
 10
10.1895
 20
5.9536
 40
0.0501
 50
359.1982
 51
29.1770
 62
5
  0
ARC
  8
1
  6
CONTINUOUS
 10
10.1895
 20
5.9536
 40
0.0500
 50
329.2329
 51
359.1979
 62
5
  0
ARC
  8
1
  6
CONTINUOUS
 10
10.4859
 20
6.2563
 40
0.0500
 50
11.4227
 51
41.3475
 62
5
  0
ARC
  8
1
  6
CONTINUOUS
 10
10.4859
 20
6.2563
 40
0.0500
 50
341.3117
 51
11.4225
 62
5
  0
ARC
  8
1
  6
CONTINUOUS
 10
10.9423
 20
6.2553
 40
0.0500
 50
9.2171
 51
39.2328
 62
5
  0
ARC
  8
1
  6
CONTINUOUS
 10
10.9423
 20
6.2553
 40
0.0499
 50
339.2427
 51
9.2170
 62
5
  0
ARC
  8
1
  6
CONTINUOUS
 10
11.2395
 20
5.9555
 40
0.0500
 50
3.0969
 51
33.0864
 62
5
  0
ARC
  8
1
  6
CONTINUOUS
 10
11.2395
 20
5.9555
 40
0.0500
 50
333.1274
 51
3.0970
 62
5
  0
ARC
  8
1
  6
CONTINUOUS
 10
11.2394
 20
5.5005
 40
0.0500
 50
5.6306
 51
35.7243
 62
5
  0
ARC
  8
1
  6
CONTINUOUS
 10
11.2394
 20
5.5005
 40
0.0499
 50
335.6883
 51
5.6307
 62
5
  0
ARC
  8
1
  6
CONTINUOUS
 10
10.9426
 20
5.1993
 40
0.0500
 50
357.0179
 51
26.9752
 62
5
  0
ARC
  8
1
  6
CONTINUOUS
 10
10.9426
 20
5.1993
 40
0.0500
 50
327.0101
 51
357.0177
 62
5
  0
ARC
  8
1
  6
CONTINUOUS
 10
10.9425
 20
3.9534
 40
0.0500
 50
5.2774
 51
35.1514
 62
5
  0
ARC
  8
1
  6
CONTINUOUS
 10
10.9425
 20
3.9534
 40
0.0500
 50
335.1769
 51
5.2775
 62
5
  0
ARC
  8
1
  6
CONTINUOUS
 10
12.4895
 20
5.4963
 40
0.0500
 50
357.1318
 51
27.1286
 62
5
  0
ARC
  8
1
  6
CONTINUOUS
 10
12.4895
 20
5.4963
 40
0.0500
 50
327.1679
 51
357.1318
 62
5
  0
ARC
  8
1
  6
CONTINUOUS
 10
12.4895
 20
5.9535
 40
0.0501
 50
359.1982
 51
29.1765
 62
5
  0
ARC
  8
1
  6
CONTINUOUS
 10
12.4895
 20
5.9535
 40
0.0500
 50
329.2325
 51
359.1979
 62
5
  0
ARC
  8
1
  6
CONTINUOUS
 10
10.9423
 20
7.5051
 40
0.0500
 50
8.7457
 51
38.7490
 62
5
  0
ARC
  8
1
  6
CONTINUOUS
 10
10.9423
 20
7.5051
 40
0.0500
 50
338.7728
 51
8.7459
 62
5
  0
ARC
  8
1
  6
CONTINUOUS
 10
10.4864
 20
7.5002
 40
0.0500
 50
358.8540
 51
28.9209
 62
5
  0
ARC
  8
1
  6
CONTINUOUS
 10
10.4864
 20
7.5002
 40
0.0500
 50
328.9183
 51
358.8543
 62
5
  0
ARC
  8
1
  6
CONTINUOUS
 10
9.7640
 20
7.6249
 40
0.1000
 50
296.8215
 51
26.8213
 62
5
  0
ARC
  8
1
  6
CONTINUOUS
 10
9.7640
 20
7.6249
 40
0.1000
 50
206.7958
 51
296.8215
 62
5
  0
ARC
  8
1
  6
CONTINUOUS
 10
8.9393
 20
5.9578
 40
0.0499
 50
7.8222
 51
37.8347
 62
5
  0
ARC
  8
1
  6
CONTINUOUS
 10
8.9393
 20
5.9578
 40
0.0500
 50
337.7948
 51
7.8221
 62
5
  0
ARC
  8
1
  6
CONTINUOUS
 10
10.1895
 20
5.9536
 40
0.0501
 50
359.1982
 51
29.1770
 62
5
  0
ARC
  8
1
  6
CONTINUOUS
 10
10.1895
 20
5.9536
 40
0.0500
 50
329.2329
 51
359.1979
 62
5
  0
ARC
  8
1
  6
CONTINUOUS
 10
10.4859
 20
6.2563
 40
0.0500
 50
11.4227
 51
41.3475
 62
5
  0
ARC
  8
1
  6
CONTINUOUS
 10
10.4859
 20
6.2563
 40
0.0500
 50
341.3117
 51
11.4225
 62
5
  0
ARC
  8
1
  6
CONTINUOUS
 10
10.9423
 20
6.2553
 40
0.0500
 50
9.2171
 51
39.2328
 62
5
  0
ARC
  8
1
  6
CONTINUOUS
 10
10.9423
 20
6.2553
 40
0.0499
 50
339.2427
 51
9.2170
 62
5
  0
ARC
  8
1
  6
CONTINUOUS
 10
11.2395
 20
5.9555
 40
0.0500
 50
3.0969
 51
33.0864
 62
5
  0
ARC
  8
1
  6
CONTINUOUS
 10
11.2395
 20
5.9555
 40
0.0500
 50
333.1274
 51
3.0970
 62
5
  0
ARC
  8
1
  6
CONTINUOUS
 10
11.2394
 20
5.5005
 40
0.0500
 50
5.6306
 51
35.7243
 62
5
  0
ARC
  8
1
  6
CONTINUOUS
 10
11.2394
 20
5.5005
 40
0.0499
 50
335.6883
 51
5.6307
 62
5
  0
ARC
  8
1
  6
CONTINUOUS
 10
10.9426
 20
5.1993
 40
0.0500
 50
357.0179
 51
26.9752
 62
5
  0
ARC
  8
1
  6
CONTINUOUS
 10
10.9426
 20
5.1993
 40
0.0500
 50
327.0101
 51
357.0177
 62
5
  0
ARC
  8
1
  6
CONTINUOUS
 10
10.9425
 20
3.9534
 40
0.0500
 50
5.2774
 51
35.1514
 62
5
  0
ARC
  8
1
  6
CONTINUOUS
 10
10.9425
 20
3.9534
 40
0.0500
 50
335.1769
 51
5.2775
 62
5
  0
ARC
  8
1
  6
CONTINUOUS
 10
12.4895
 20
5.4963
 40
0.0500
 50
357.1318
 51
27.1286
 62
5
  0
ARC
  8
1
  6
CONTINUOUS
 10
12.4895
 20
5.4963
 40
0.0500
 50
327.1679
 51
357.1318
 62
5
  0
ARC
  8
1
  6
CONTINUOUS
 10
12.4895
 20
5.9535
 40
0.0501
 50
359.1982
 51
29.1765
 62
5
  0
ARC
  8
1
  6
CONTINUOUS
 10
12.4895
 20
5.9535
 40
0.0500
 50
329.2325
 51
359.1979
 62
5
  0
ARC
  8
1
  6
CONTINUOUS
 10
10.9423
 20
7.5051
 40
0.0500
 50
8.7457
 51
38.7490
 62
5
  0
ARC
  8
1
  6
CONTINUOUS
 10
10.9423
 20
7.5051
 40
0.0500
 50
338.7728
 51
8.7459
 62
5
  0
ARC
  8
1
  6
CONTINUOUS
 10
10.4864
 20
7.5002
 40
0.0500
 50
358.8540
 51
28.9209
 62
5
  0
ARC
  8
1
  6
CONTINUOUS
 10
10.4864
 20
7.5002
 40
0.0500
 50
328.9183
 51
358.8543
 62
5
  0
ARC
  8
1
  6
CONTINUOUS
 10
9.7640
 20
7.6249
 40
0.1000
 50
296.8215
 51
26.8213
 62
5
  0
ARC
  8
1
  6
CONTINUOUS
 10
10.7114
 20
5.7508
 40
2.0000
 50
116.8174
 51
180.0000
 62
5
  0
ARC
  8
1
  6
CONTINUOUS
 10
10.7114
 20
5.7508
 40
2.0000
 50
270.0000
 51
314.2262
 62
5
  0
ARC
  8
1
  6
CONTINUOUS
 10
10.7114
 20
5.7508
 40
2.0000
 50
314.7974
 51
113.5875
 62
5
  0
ARC
  8
1
  6
CONTINUOUS
 10
10.7114
 20
5.7508
 40
2.0000
 50
114.1609
 51
116.8174
 62
5
  0
ARC
  8
1
  6
CONTINUOUS
 10
9.7640
 20
7.6249
 40
0.1000
 50
206.7958
 51
296.8215
 62
5
  0
ENDSEC
  0
SECTION
  2
ENTITIES
  0
LINE
  8
1
  6
CONTINUOUS
 10
14.9921
 11
14.9921
 20
2.2075
 21
2.4575
 62
5
  0
LINE
  8
1
  6
CONTINUOUS
 10
15.0421
 11
15.2921
 20
2.1575
 21
2.1575
 62
5
  0
LINE
  8
1
  6
CONTINUOUS
 10
14.9921
 11
14.9921
 20
2.2075
 21
2.4575
 62
5
  0
LINE
  8
1
  6
CONTINUOUS
 10
15.0421
 11
15.2921
 20
2.1575
 21
2.1575
 62
5
  0
LINE
  8
1
  6
CONTINUOUS
 10
13.0421
 11
15.0421
 20
2.2075
 21
2.2075
 62
5
  0
LINE
  8
1
  6
CONTINUOUS
 10
15.0421
 11
15.0421
 20
2.2075
 21
0.2075
 62
5
  0
LINE
  8
1
  6
CONTINUOUS
 10
16.4371
 11
16.4511
 20
0.7743
 21
0.7601
 62
5
  0
LINE
  8
1
  6
CONTINUOUS
 10
16.4511
 11
16.4654
 20
0.7601
 21
0.7741
 62
5
  0
LINE
  8
1
  6
CONTINUOUS
 10
16.4654
 11
16.4513
 20
0.7741
 21
0.7883
 62
5
  0
LINE
  8
1
  6
CONTINUOUS
 10
14.2418
 11
14.2337
 20
4.0404
 21
4.0587
 62
5
  0
LINE
  8
1
  6
CONTINUOUS
 10
14.2337
 11
14.2154
 20
4.0587
 21
4.0506
 62
5
  0
LINE
  8
1
  6
CONTINUOUS
 10
14.2154
 11
14.2235
 20
4.0506
 21
4.0323
 62
5
  0
ARC
  8
1
  6
CONTINUOUS
 10
13.2700
 20
2.4145
 40
0.0499
 50
7.8220
 51
37.8345
 62
5
  0
ARC
  8
1
  6
CONTINUOUS
 10
13.2700
 20
2.4145
 40
0.0500
 50
337.7945
 51
7.8218
 62
5
  0
ARC
  8
1
  6
CONTINUOUS
 10
14.5202
 20
2.4103
 40
0.0501
 50
359.1977
 51
29.1768
 62
5
  0
ARC
  8
1
  6
CONTINUOUS
 10
14.5202
 20
2.4103
 40
0.0500
 50
329.2327
 51
359.1979
 62
5
  0
ARC
  8
1
  6
CONTINUOUS
 10
14.8166
 20
2.7130
 40
0.0500
 50
11.4227
 51
41.3475
 62
5
  0
ARC
  8
1
  6
CONTINUOUS
 10
14.8166
 20
2.7130
 40
0.0500
 50
341.3114
 51
11.4225
 62
5
  0
ARC
  8
1
  6
CONTINUOUS
 10
15.2730
 20
2.7120
 40
0.0500
 50
9.2174
 51
39.2328
 62
5
  0
ARC
  8
1
  6
CONTINUOUS
 10
15.2730
 20
2.7120
 40
0.0499
 50
339.2427
 51
9.2173
 62
5
  0
ARC
  8
1
  6
CONTINUOUS
 10
15.5702
 20
2.4122
 40
0.0500
 50
3.0969
 51
33.0864
 62
5
  0
ARC
  8
1
  6
CONTINUOUS
 10
15.5702
 20
2.4122
 40
0.0500
 50
333.1274
 51
3.0970
 62
5
  0
ARC
  8
1
  6
CONTINUOUS
 10
15.5701
 20
1.9572
 40
0.0500
 50
5.6306
 51
35.7241
 62
5
  0
ARC
  8
1
  6
CONTINUOUS
 10
15.5701
 20
1.9572
 40
0.0499
 50
335.6885
 51
5.6307
 62
5
  0
ARC
  8
1
  6
CONTINUOUS
 10
15.2733
 20
1.6560
 40
0.0500
 50
357.0174
 51
26.9750
 62
5
  0
ARC
  8
1
  6
CONTINUOUS
 10
15.2733
 20
1.6560
 40
0.0500
 50
327.0099
 51
357.0174
 62
5
  0
ARC
  8
1
  6
CONTINUOUS
 10
15.2732
 20
0.4101
 40
0.0500
 50
5.2774
 51
35.1514
 62
5
  0
ARC
  8
1
  6
CONTINUOUS
 10
15.2732
 20
0.4101
 40
0.0500
 50
335.1769
 51
5.2775
 62
5
  0
ARC
  8
1
  6
CONTINUOUS
 10
16.8202
 20
1.9530
 40
0.0500
 50
357.1318
 51
27.1286
 62
5
  0
ARC
  8
1
  6
CONTINUOUS
 10
16.8202
 20
1.9530
 40
0.0500
 50
327.1687
 51
357.1318
 62
5
  0
ARC
  8
1
  6
CONTINUOUS
 10
16.8202
 20
2.4102
 40
0.0501
 50
359.1977
 51
29.1760
 62
5
  0
ARC
  8
1
  6
CONTINUOUS
 10
16.8202
 20
2.4102
 40
0.0500
 50
329.2325
 51
359.1979
 62
5
  0
ARC
  8
1
  6
CONTINUOUS
 10
15.2730
 20
3.9618
 40
0.0500
 50
8.7462
 51
38.7488
 62
5
  0
ARC
  8
1
  6
CONTINUOUS
 10
15.2730
 20
3.9618
 40
0.0500
 50
338.7735
 51
8.7459
 62
5
  0
ARC
  8
1
  6
CONTINUOUS
 10
14.8171
 20
3.9569
 40
0.0500
 50
358.8545
 51
28.9212
 62
5
  0
ARC
  8
1
  6
CONTINUOUS
 10
14.8171
 20
3.9569
 40
0.0500
 50
328.9185
 51
358.8543
 62
5
  0
ARC
  8
1
  6
CONTINUOUS
 10
14.0947
 20
4.0816
 40
0.1000
 50
296.8214
 51
26.8213
 62
5
  0
ARC
  8
1
  6
CONTINUOUS
 10
14.0947
 20
4.0816
 40
0.1000
 50
206.7958
 51
296.8214
 62
5
  0
ARC
  8
1
  6
CONTINUOUS
 10
13.2700
 20
2.4145
 40
0.0499
 50
7.8220
 51
37.8345
 62
5
  0
ARC
  8
1
  6
CONTINUOUS
 10
13.2700
 20
2.4145
 40
0.0500
 50
337.7945
 51
7.8218
 62
5
  0
ARC
  8
1
  6
CONTINUOUS
 10
14.5202
 20
2.4103
 40
0.0501
 50
359.1977
 51
29.1768
 62
5
  0
ARC
  8
1
  6
CONTINUOUS
 10
14.5202
 20
2.4103
 40
0.0500
 50
329.2327
 51
359.1979
 62
5
  0
ARC
  8
1
  6
CONTINUOUS
 10
14.8166
 20
2.7130
 40
0.0500
 50
11.4227
 51
41.3475
 62
5
  0
ARC
  8
1
  6
CONTINUOUS
 10
14.8166
 20
2.7130
 40
0.0500
 50
341.3114
 51
11.4225
 62
5
  0
ARC
  8
1
  6
CONTINUOUS
 10
15.2730
 20
2.7120
 40
0.0500
 50
9.2174
 51
39.2328
 62
5
  0
ARC
  8
1
  6
CONTINUOUS
 10
15.2730
 20
2.7120
 40
0.0499
 50
339.2427
 51
9.2173
 62
5
  0
ARC
  8
1
  6
CONTINUOUS
 10
15.5702
 20
2.4122
 40
0.0500
 50
3.0969
 51
33.0864
 62
5
  0
ARC
  8
1
  6
CONTINUOUS
 10
15.5702
 20
2.4122
 40
0.0500
 50
333.1274
 51
3.0970
 62
5
  0
ARC
  8
1
  6
CONTINUOUS
 10
15.5701
 20
1.9572
 40
0.0500
 50
5.6306
 51
35.7241
 62
5
  0
ARC
  8
1
  6
CONTINUOUS
 10
15.5701
 20
1.9572
 40
0.0499
 50
335.6885
 51
5.6307
 62
5
  0
ARC
  8
1
  6
CONTINUOUS
 10
15.2733
 20
1.6560
 40
0.0500
 50
357.0174
 51
26.9750
 62
5
  0
ARC
  8
1
  6
CONTINUOUS
 10
15.2733
 20
1.6560
 40
0.0500
 50
327.0099
 51
357.0174
 62
5
  0
ARC
  8
1
  6
CONTINUOUS
 10
15.2732
 20
0.4101
 40
0.0500
 50
5.2774
 51
35.1514
 62
5
  0
ARC
  8
1
  6
CONTINUOUS
 10
15.2732
 20
0.4101
 40
0.0500
 50
335.1769
 51
5.2775
 62
5
  0
ARC
  8
1
  6
CONTINUOUS
 10
16.8202
 20
1.9530
 40
0.0500
 50
357.1318
 51
27.1286
 62
5
  0
ARC
  8
1
  6
CONTINUOUS
 10
16.8202
 20
1.9530
 40
0.0500
 50
327.1687
 51
357.1318
 62
5
  0
ARC
  8
1
  6
CONTINUOUS
 10
16.8202
 20
2.4102
 40
0.0501
 50
359.1977
 51
29.1760
 62
5
  0
ARC
  8
1
  6
CONTINUOUS
 10
16.8202
 20
2.4102
 40
0.0500
 50
329.2325
 51
359.1979
 62
5
  0
ARC
  8
1
  6
CONTINUOUS
 10
15.2730
 20
3.9618
 40
0.0500
 50
8.7462
 51
38.7488
 62
5
  0
ARC
  8
1
  6
CONTINUOUS
 10
15.2730
 20
3.9618
 40
0.0500
 50
338.7735
 51
8.7459
 62
5
  0
ARC
  8
1
  6
CONTINUOUS
 10
14.8171
 20
3.9569
 40
0.0500
 50
358.8545
 51
28.9212
 62
5
  0
ARC
  8
1
  6
CONTINUOUS
 10
14.8171
 20
3.9569
 40
0.0500
 50
328.9185
 51
358.8543
 62
5
  0
ARC
  8
1
  6
CONTINUOUS
 10
14.0947
 20
4.0816
 40
0.1000
 50
296.8214
 51
26.8213
 62
5
  0
ARC
  8
1
  6
CONTINUOUS
 10
15.0421
 20
2.2075
 40
2.0000
 50
116.8174
 51
180.0000
 62
5
  0
ARC
  8
1
  6
CONTINUOUS
 10
15.0421
 20
2.2075
 40
2.0000
 50
270.0000
 51
314.2262
 62
5
  0
ARC
  8
1
  6
CONTINUOUS
 10
15.0421
 20
2.2075
 40
2.0000
 50
314.7975
 51
113.5875
 62
5
  0
ARC
  8
1
  6
CONTINUOUS
 10
15.0421
 20
2.2075
 40
2.0000
 50
114.1609
 51
116.8174
 62
5
  0
ARC
  8
1
  6
CONTINUOUS
 10
14.0947
 20
4.0816
 40
0.1000
 50
206.7958
 51
296.8214
 62
5
  0
ENDSEC
  0
SECTION
  2
ENTITIES
  0
LINE
  8
1
  6
CONTINUOUS
 10
12.8087
 11
12.8087
 20
2.1287
 21
1.8787
 62
5
  0
LINE
  8
1
  6
CONTINUOUS
 10
12.7587
 11
12.5087
 20
2.1787
 21
2.1787
 62
5
  0
LINE
  8
1
  6
CONTINUOUS
 10
12.8087
 11
12.8087
 20
2.1287
 21
1.8787
 62
5
  0
LINE
  8
1
  6
CONTINUOUS
 10
12.7587
 11
12.5087
 20
2.1787
 21
2.1787
 62
5
  0
LINE
  8
1
  6
CONTINUOUS
 10
14.7587
 11
12.7587
 20
2.1287
 21
2.1287
 62
5
  0
LINE
  8
1
  6
CONTINUOUS
 10
12.7587
 11
12.7587
 20
2.1287
 21
4.1287
 62
5
  0
LINE
  8
1
  6
CONTINUOUS
 10
11.3637
 11
11.3497
 20
3.5619
 21
3.5761
 62
5
  0
LINE
  8
1
  6
CONTINUOUS
 10
11.3497
 11
11.3354
 20
3.5761
 21
3.5621
 62
5
  0
LINE
  8
1
  6
CONTINUOUS
 10
11.3354
 11
11.3495
 20
3.5621
 21
3.5479
 62
5
  0
LINE
  8
1
  6
CONTINUOUS
 10
13.5590
 11
13.5671
 20
0.2958
 21
0.2775
 62
5
  0
LINE
  8
1
  6
CONTINUOUS
 10
13.5671
 11
13.5854
 20
0.2775
 21
0.2856
 62
5
  0
LINE
  8
1
  6
CONTINUOUS
 10
13.5854
 11
13.5773
 20
0.2856
 21
0.3039
 62
5
  0
ARC
  8
1
  6
CONTINUOUS
 10
14.5308
 20
1.9217
 40
0.0499
 50
187.8218
 51
217.8346
 62
5
  0
ARC
  8
1
  6
CONTINUOUS
 10
14.5308
 20
1.9217
 40
0.0500
 50
157.7946
 51
187.8218
 62
5
  0
ARC
  8
1
  6
CONTINUOUS
 10
13.2806
 20
1.9259
 40
0.0501
 50
179.1981
 51
209.1768
 62
5
  0
ARC
  8
1
  6
CONTINUOUS
 10
13.2806
 20
1.9259
 40
0.0500
 50
149.2326
 51
179.1979
 62
5
  0
ARC
  8
1
  6
CONTINUOUS
 10
12.9842
 20
1.6232
 40
0.0500
 50
191.4224
 51
221.3475
 62
5
  0
ARC
  8
1
  6
CONTINUOUS
 10
12.9842
 20
1.6232
 40
0.0500
 50
161.3113
 51
191.4225
 62
5
  0
ARC
  8
1
  6
CONTINUOUS
 10
12.5278
 20
1.6242
 40
0.0500
 50
189.2172
 51
219.2328
 62
5
  0
ARC
  8
1
  6
CONTINUOUS
 10
12.5278
 20
1.6242
 40
0.0499
 50
159.2427
 51
189.2171
 62
5
  0
ARC
  8
1
  6
CONTINUOUS
 10
12.2306
 20
1.9240
 40
0.0500
 50
183.0971
 51
213.0865
 62
5
  0
ARC
  8
1
  6
CONTINUOUS
 10
12.2306
 20
1.9240
 40
0.0500
 50
153.1275
 51
183.0972
 62
5
  0
ARC
  8
1
  6
CONTINUOUS
 10
12.2307
 20
2.3790
 40
0.0500
 50
185.6306
 51
215.7241
 62
5
  0
ARC
  8
1
  6
CONTINUOUS
 10
12.2307
 20
2.3790
 40
0.0499
 50
155.6886
 51
185.6307
 62
5
  0
ARC
  8
1
  6
CONTINUOUS
 10
12.5275
 20
2.6802
 40
0.0500
 50
177.0174
 51
206.9750
 62
5
  0
ARC
  8
1
  6
CONTINUOUS
 10
12.5275
 20
2.6802
 40
0.0500
 50
147.0099
 51
177.0174
 62
5
  0
ARC
  8
1
  6
CONTINUOUS
 10
12.5276
 20
3.9261
 40
0.0500
 50
185.2775
 51
215.1514
 62
5
  0
ARC
  8
1
  6
CONTINUOUS
 10
12.5276
 20
3.9261
 40
0.0500
 50
155.1769
 51
185.2775
 62
5
  0
ARC
  8
1
  6
CONTINUOUS
 10
10.9806
 20
2.3832
 40
0.0500
 50
177.1318
 51
207.1286
 62
5
  0
ARC
  8
1
  6
CONTINUOUS
 10
10.9806
 20
2.3832
 40
0.0500
 50
147.1682
 51
177.1318
 62
5
  0
ARC
  8
1
  6
CONTINUOUS
 10
10.9806
 20
1.9260
 40
0.0501
 50
179.1981
 51
209.1768
 62
5
  0
ARC
  8
1
  6
CONTINUOUS
 10
10.9806
 20
1.9260
 40
0.0500
 50
149.2326
 51
179.1979
 62
5
  0
ARC
  8
1
  6
CONTINUOUS
 10
12.5278
 20
0.3744
 40
0.0500
 50
188.7461
 51
218.7489
 62
5
  0
ARC
  8
1
  6
CONTINUOUS
 10
12.5278
 20
0.3744
 40
0.0500
 50
158.7731
 51
188.7461
 62
5
  0
ARC
  8
1
  6
CONTINUOUS
 10
12.9837
 20
0.3793
 40
0.0500
 50
178.8543
 51
208.9210
 62
5
  0
ARC
  8
1
  6
CONTINUOUS
 10
12.9837
 20
0.3793
 40
0.0500
 50
148.9185
 51
178.8543
 62
5
  0
ARC
  8
1
  6
CONTINUOUS
 10
13.7061
 20
0.2546
 40
0.1000
 50
116.8215
 51
206.8214
 62
5
  0
ARC
  8
1
  6
CONTINUOUS
 10
13.7061
 20
0.2546
 40
0.1000
 50
26.7956
 51
116.8215
 62
5
  0
ARC
  8
1
  6
CONTINUOUS
 10
14.5308
 20
1.9217
 40
0.0499
 50
187.8218
 51
217.8346
 62
5
  0
ARC
  8
1
  6
CONTINUOUS
 10
14.5308
 20
1.9217
 40
0.0500
 50
157.7946
 51
187.8218
 62
5
  0
ARC
  8
1
  6
CONTINUOUS
 10
13.2806
 20
1.9259
 40
0.0501
 50
179.1981
 51
209.1768
 62
5
  0
ARC
  8
1
  6
CONTINUOUS
 10
13.2806
 20
1.9259
 40
0.0500
 50
149.2326
 51
179.1979
 62
5
  0
ARC
  8
1
  6
CONTINUOUS
 10
12.9842
 20
1.6232
 40
0.0500
 50
191.4224
 51
221.3475
 62
5
  0
ARC
  8
1
  6
CONTINUOUS
 10
12.9842
 20
1.6232
 40
0.0500
 50
161.3113
 51
191.4225
 62
5
  0
ARC
  8
1
  6
CONTINUOUS
 10
12.5278
 20
1.6242
 40
0.0500
 50
189.2172
 51
219.2328
 62
5
  0
ARC
  8
1
  6
CONTINUOUS
 10
12.5278
 20
1.6242
 40
0.0499
 50
159.2427
 51
189.2171
 62
5
  0
ARC
  8
1
  6
CONTINUOUS
 10
12.2306
 20
1.9240
 40
0.0500
 50
183.0971
 51
213.0865
 62
5
  0
ARC
  8
1
  6
CONTINUOUS
 10
12.2306
 20
1.9240
 40
0.0500
 50
153.1275
 51
183.0972
 62
5
  0
ARC
  8
1
  6
CONTINUOUS
 10
12.2307
 20
2.3790
 40
0.0500
 50
185.6306
 51
215.7241
 62
5
  0
ARC
  8
1
  6
CONTINUOUS
 10
12.2307
 20
2.3790
 40
0.0499
 50
155.6886
 51
185.6307
 62
5
  0
ARC
  8
1
  6
CONTINUOUS
 10
12.5275
 20
2.6802
 40
0.0500
 50
177.0174
 51
206.9750
 62
5
  0
ARC
  8
1
  6
CONTINUOUS
 10
12.5275
 20
2.6802
 40
0.0500
 50
147.0099
 51
177.0174
 62
5
  0
ARC
  8
1
  6
CONTINUOUS
 10
12.5276
 20
3.9261
 40
0.0500
 50
185.2775
 51
215.1514
 62
5
  0
ARC
  8
1
  6
CONTINUOUS
 10
12.5276
 20
3.9261
 40
0.0500
 50
155.1769
 51
185.2775
 62
5
  0
ARC
  8
1
  6
CONTINUOUS
 10
10.9806
 20
2.3832
 40
0.0500
 50
177.1318
 51
207.1286
 62
5
  0
ARC
  8
1
  6
CONTINUOUS
 10
10.9806
 20
2.3832
 40
0.0500
 50
147.1682
 51
177.1318
 62
5
  0
ARC
  8
1
  6
CONTINUOUS
 10
10.9806
 20
1.9260
 40
0.0501
 50
179.1981
 51
209.1768
 62
5
  0
ARC
  8
1
  6
CONTINUOUS
 10
10.9806
 20
1.9260
 40
0.0500
 50
149.2326
 51
179.1979
 62
5
  0
ARC
  8
1
  6
CONTINUOUS
 10
12.5278
 20
0.3744
 40
0.0500
 50
188.7461
 51
218.7489
 62
5
  0
ARC
  8
1
  6
CONTINUOUS
 10
12.5278
 20
0.3744
 40
0.0500
 50
158.7731
 51
188.7461
 62
5
  0
ARC
  8
1
  6
CONTINUOUS
 10
12.9837
 20
0.3793
 40
0.0500
 50
178.8543
 51
208.9210
 62
5
  0
ARC
  8
1
  6
CONTINUOUS
 10
12.9837
 20
0.3793
 40
0.0500
 50
148.9185
 51
178.8543
 62
5
  0
ARC
  8
1
  6
CONTINUOUS
 10
13.7061
 20
0.2546
 40
0.1000
 50
116.8215
 51
206.8214
 62
5
  0
ARC
  8
1
  6
CONTINUOUS
 10
12.7587
 20
2.1287
 40
2.0000
 50
296.8174
 51
0.0000
 62
5
  0
ARC
  8
1
  6
CONTINUOUS
 10
12.7587
 20
2.1287
 40
2.0000
 50
90.0000
 51
134.2262
 62
5
  0
ARC
  8
1
  6
CONTINUOUS
 10
12.7587
 20
2.1287
 40
2.0000
 50
134.7974
 51
293.5875
 62
5
  0
ARC
  8
1
  6
CONTINUOUS
 10
12.7587
 20
2.1287
 40
2.0000
 50
294.1609
 51
296.8174
 62
5
  0
ARC
  8
1
  6
CONTINUOUS
 10
13.7061
 20
0.2546
 40
0.1000
 50
26.7956
 51
116.8215
 62
5
  0
ENDSEC
  0
EOF
