  0
SECTION
  2
HEADER
  9
$ACADVER
  1
AC1003
  9
$EXTMIN
 10
0.000000
 20
-0.020000
  9
$EXTMAX
 10
21.212500
 20
0.937500
  0
ENDSEC
  0
TABLE
  2
LAYER
 70
	256
  0
LAYER
  2
1
 70
	0
  6
CONTINUOUS
 62
1
  0
ENDTAB
  0
SECTION
  2
ENTITIES
  0
LINE
  8
1
  6
CONTINUOUS
 10
0.0000
 11
0.8875
 20
0.0000
 21
0.8875
 30
0.0000
 31
0.0000
 62
256
  0
LINE
  8
1
  6
CONTINUOUS
 10
0.8875
 11
1.4544
 20
0.8875
 21
0.8875
 30
0.0000
 31
0.0000
 62
256
  0
LINE
  8
1
  6
CONTINUOUS
 10
20.3250
 11
21.2125
 20
0.8875
 21
0.0000
 30
0.0000
 31
0.0000
 62
256
  0
LINE
  8
1
  6
CONTINUOUS
 10
21.2125
 11
9.3273
 20
0.0000
 21
0.0000
 30
0.0000
 31
0.0000
 62
256
  0
LINE
  8
1
  6
CONTINUOUS
 10
0.6062
 11
1.0063
 20
0.4063
 21
0.4063
 30
0.0000
 31
0.0000
 62
2
  0
LINE
  8
1
  6
CONTINUOUS
 10
20.2062
 11
20.6063
 20
0.4063
 21
0.4063
 30
0.0000
 31
0.0000
 62
2
  0
LINE
  8
1
  6
CONTINUOUS
 10
20.6063
 11
20.2062
 20
0.6062
 21
0.6062
 30
0.0000
 31
0.0000
 62
2
  0
LINE
  8
1
  6
CONTINUOUS
 10
10.4063
 11
10.8062
 20
0.6062
 21
0.6062
 30
0.0000
 31
0.0000
 62
2
  0
LINE
  8
1
  6
CONTINUOUS
 10
0.6062
 11
1.0063
 20
0.6062
 21
0.6062
 30
0.0000
 31
0.0000
 62
2
  0
LINE
  8
1
  6
CONTINUOUS
 10
1.4744
 11
19.5336
 20
0.8875
 21
0.8875
 30
0.0000
 31
0.0000
 62
256
  0
LINE
  8
1
  6
CONTINUOUS
 10
1.4744
 11
1.4744
 20
0.8875
 21
0.9075
 30
0.0000
 31
0.0000
 62
2
  0
LINE
  8
1
  6
CONTINUOUS
 10
1.4544
 11
1.4544
 20
0.8875
 21
0.9075
 30
0.0000
 31
0.0000
 62
2
  0
LINE
  8
1
  6
CONTINUOUS
 10
1.4744
 11
1.4544
 20
0.9075
 21
0.9075
 30
0.0000
 31
0.0000
 62
6000
  0
LINE
  8
1
  6
CONTINUOUS
 10
19.8374
 11
20.3250
 20
0.8875
 21
0.8875
 30
0.0000
 31
0.0000
 62
256
  0
LINE
  8
1
  6
CONTINUOUS
 10
19.8374
 11
19.8374
 20
0.8875
 21
0.9075
 30
0.0000
 31
0.0000
 62
2
  0
LINE
  8
1
  6
CONTINUOUS
 10
19.8174
 11
19.8174
 20
0.8875
 21
0.9075
 30
0.0000
 31
0.0000
 62
2
  0
LINE
  8
1
  6
CONTINUOUS
 10
19.8374
 11
19.8174
 20
0.9075
 21
0.9075
 30
0.0000
 31
0.0000
 62
6000
  0
LINE
  8
1
  6
CONTINUOUS
 10
9.3073
 11
0.0000
 20
0.0000
 21
0.0000
 30
0.0000
 31
0.0000
 62
256
  0
LINE
  8
1
  6
CONTINUOUS
 10
9.3073
 11
9.3073
 20
0.0000
 21
-0.0200
 30
0.0000
 31
0.0000
 62
2
  0
LINE
  8
1
  6
CONTINUOUS
 10
9.3273
 11
9.3273
 20
0.0000
 21
-0.0200
 30
0.0000
 31
0.0000
 62
2
  0
LINE
  8
1
  6
CONTINUOUS
 10
9.3073
 11
9.3273
 20
-0.0200
 21
-0.0200
 30
0.0000
 31
0.0000
 62
6000
  0
LINE
  8
1
  6
CONTINUOUS
 10
19.5336
 11
19.8174
 20
0.8875
 21
0.8875
 30
0.0000
 31
0.0000
 62
256
  0
LINE
  8
1
  6
CONTINUOUS
 10
0.5269
 11
0.6062
 20
0.2739
 21
0.4063
 30
0.0000
 31
0.0000
 62
3
  0
LINE
  8
1
  6
CONTINUOUS
 10
1.0063
 11
0.6062
 20
0.4063
 21
0.6062
 30
0.0000
 31
0.0000
 62
3
  0
LINE
  8
1
  6
CONTINUOUS
 10
1.0063
 11
1.7215
 20
0.6062
 21
0.2732
 30
0.0000
 31
0.0000
 62
3
  0
LINE
  8
1
  6
CONTINUOUS
 10
1.7715
 11
2.5807
 20
0.2757
 21
0.8556
 30
0.0000
 31
0.0000
 62
3
  0
LINE
  8
1
  6
CONTINUOUS
 10
2.6307
 11
10.5824
 20
0.8560
 21
0.8562
 30
0.0000
 31
0.0000
 62
3
  0
LINE
  8
1
  6
CONTINUOUS
 10
10.6324
 11
10.4063
 20
0.8554
 21
0.6062
 30
0.0000
 31
0.0000
 62
3
  0
LINE
  8
1
  6
CONTINUOUS
 10
10.8062
 11
10.5795
 20
0.6062
 21
0.2739
 30
0.0000
 31
0.0000
 62
3
  0
LINE
  8
1
  6
CONTINUOUS
 10
10.6295
 11
18.5808
 20
0.2751
 21
0.8556
 30
0.0000
 31
0.0000
 62
3
  0
LINE
  8
1
  6
CONTINUOUS
 10
18.6308
 11
19.4335
 20
0.8560
 21
0.2730
 30
0.0000
 31
0.0000
 62
3
  0
LINE
  8
1
  6
CONTINUOUS
 10
19.4834
 11
20.6063
 20
0.2758
 21
0.6062
 30
0.0000
 31
0.0000
 62
3
  0
LINE
  8
1
  6
CONTINUOUS
 10
20.2062
 11
20.2062
 20
0.6062
 21
0.4063
 30
0.0000
 31
0.0000
 62
3
  0
LINE
  8
1
  6
CONTINUOUS
 10
20.6063
 11
20.6838
 20
0.4063
 21
0.2731
 30
0.0000
 31
0.0000
 62
3
  0
LINE
  8
1
  6
CONTINUOUS
 10
20.7337
 11
19.5836
 20
0.2758
 21
0.9375
 30
0.0000
 31
0.0000
 62
3
  0
ARC
  8
1
  6
CONTINUOUS
 10
0.5000
 20
0.2031
 30
0.0000
 40
0.0781
 50
0.0000
 51
88.4612
 62
256
  0
ARC
  8
1
  6
CONTINUOUS
 10
0.5000
 20
0.2031
 30
0.0000
 40
0.0781
 50
180.0000
 51
0.0000
 62
256
  0
ARC
  8
1
  6
CONTINUOUS
 10
2.6063
 20
0.7844
 30
0.0000
 40
0.0781
 50
0.0000
 51
90.4655
 62
256
  0
ARC
  8
1
  6
CONTINUOUS
 10
2.6063
 20
0.7844
 30
0.0000
 40
0.0781
 50
180.0000
 51
0.0000
 62
256
  0
ARC
  8
1
  6
CONTINUOUS
 10
10.6062
 20
0.2031
 30
0.0000
 40
0.0781
 50
0.0000
 51
91.3822
 62
256
  0
ARC
  8
1
  6
CONTINUOUS
 10
10.6062
 20
0.2031
 30
0.0000
 40
0.0781
 50
180.0000
 51
0.0000
 62
256
  0
ARC
  8
1
  6
CONTINUOUS
 10
20.7125
 20
0.2031
 30
0.0000
 40
0.0781
 50
0.0000
 51
93.0047
 62
256
  0
ARC
  8
1
  6
CONTINUOUS
 10
20.7125
 20
0.2031
 30
0.0000
 40
0.0781
 50
180.0000
 51
0.0000
 62
256
  0
ARC
  8
1
  6
CONTINUOUS
 10
18.6063
 20
0.7844
 30
0.0000
 40
0.0781
 50
0.0000
 51
90.3623
 62
256
  0
ARC
  8
1
  6
CONTINUOUS
 10
18.6063
 20
0.7844
 30
0.0000
 40
0.0781
 50
180.0000
 51
0.0000
 62
256
  0
ARC
  8
1
  6
CONTINUOUS
 10
10.6062
 20
0.7844
 30
0.0000
 40
0.0781
 50
0.0000
 51
89.0893
 62
256
  0
ARC
  8
1
  6
CONTINUOUS
 10
10.6062
 20
0.7844
 30
0.0000
 40
0.0781
 50
180.0000
 51
0.0000
 62
256
  0
ARC
  8
1
  6
CONTINUOUS
 10
1.7500
 20
0.2031
 30
0.0000
 40
0.0781
 50
0.0000
 51
92.8128
 62
256
  0
ARC
  8
1
  6
CONTINUOUS
 10
1.7500
 20
0.2031
 30
0.0000
 40
0.0781
 50
180.0000
 51
0.0000
 62
256
  0
ARC
  8
1
  6
CONTINUOUS
 10
19.4625
 20
0.2031
 30
0.0000
 40
0.0781
 50
0.0000
 51
93.2190
 62
256
  0
ARC
  8
1
  6
CONTINUOUS
 10
19.4625
 20
0.2031
 30
0.0000
 40
0.0781
 50
180.0000
 51
0.0000
 62
256
  0
ARC
  8
1
  6
CONTINUOUS
 10
19.5336
 20
0.9375
 30
0.0000
 40
0.0500
 50
270.0000
 51
0.0000
 62
2
  0
ARC
  8
1
  6
CONTINUOUS
 10
19.5336
 20
0.9375
 30
0.0000
 40
0.0500
 50
180.0000
 51
270.0000
 62
2
  0
ARC
  8
1
  6
CONTINUOUS
 10
20.7125
 20
0.2031
 30
0.0000
 40
0.0781
 50
93.0047
 51
180.0000
 62
256
  0
ARC
  8
1
  6
CONTINUOUS
 10
20.7110
 20
0.2312
 30
0.0000
 40
0.0500
 50
93.0045
 51
123.0043
 62
2
  0
ARC
  8
1
  6
CONTINUOUS
 10
20.7110
 20
0.2312
 30
0.0000
 40
0.0500
 50
63.0050
 51
93.0045
 62
2
  0
ARC
  8
1
  6
CONTINUOUS
 10
19.4625
 20
0.2031
 30
0.0000
 40
0.0781
 50
93.2190
 51
180.0000
 62
256
  0
ARC
  8
1
  6
CONTINUOUS
 10
19.4609
 20
0.2312
 30
0.0000
 40
0.0500
 50
93.2190
 51
123.2184
 62
2
  0
ARC
  8
1
  6
CONTINUOUS
 10
19.4609
 20
0.2312
 30
0.0000
 40
0.0500
 50
63.2185
 51
93.2190
 62
2
  0
ARC
  8
1
  6
CONTINUOUS
 10
18.6063
 20
0.7844
 30
0.0000
 40
0.0781
 50
90.3623
 51
180.0000
 62
256
  0
ARC
  8
1
  6
CONTINUOUS
 10
18.6061
 20
0.8125
 30
0.0000
 40
0.0500
 50
90.3628
 51
120.3634
 62
2
  0
ARC
  8
1
  6
CONTINUOUS
 10
18.6061
 20
0.8125
 30
0.0000
 40
0.0500
 50
60.3632
 51
90.3628
 62
2
  0
ARC
  8
1
  6
CONTINUOUS
 10
10.6062
 20
0.7844
 30
0.0000
 40
0.0781
 50
89.0893
 51
180.0000
 62
256
  0
ARC
  8
1
  6
CONTINUOUS
 10
10.6067
 20
0.8125
 30
0.0000
 40
0.0500
 50
89.0896
 51
119.0899
 62
2
  0
ARC
  8
1
  6
CONTINUOUS
 10
10.6067
 20
0.8125
 30
0.0000
 40
0.0500
 50
59.0901
 51
89.0896
 62
2
  0
ARC
  8
1
  6
CONTINUOUS
 10
10.6062
 20
0.2031
 30
0.0000
 40
0.0781
 50
91.3822
 51
180.0000
 62
256
  0
ARC
  8
1
  6
CONTINUOUS
 10
10.6056
 20
0.2312
 30
0.0000
 40
0.0500
 50
91.3826
 51
121.3823
 62
2
  0
ARC
  8
1
  6
CONTINUOUS
 10
10.6056
 20
0.2312
 30
0.0000
 40
0.0500
 50
61.3828
 51
91.3826
 62
2
  0
ARC
  8
1
  6
CONTINUOUS
 10
2.6063
 20
0.7844
 30
0.0000
 40
0.0781
 50
90.4655
 51
180.0000
 62
256
  0
ARC
  8
1
  6
CONTINUOUS
 10
2.6060
 20
0.8125
 30
0.0000
 40
0.0500
 50
90.4655
 51
120.4656
 62
2
  0
ARC
  8
1
  6
CONTINUOUS
 10
2.6060
 20
0.8125
 30
0.0000
 40
0.0500
 50
60.4657
 51
90.4655
 62
2
  0
ARC
  8
1
  6
CONTINUOUS
 10
1.7500
 20
0.2031
 30
0.0000
 40
0.0781
 50
92.8128
 51
180.0000
 62
256
  0
ARC
  8
1
  6
CONTINUOUS
 10
1.7486
 20
0.2312
 30
0.0000
 40
0.0500
 50
92.8127
 51
122.8127
 62
2
  0
ARC
  8
1
  6
CONTINUOUS
 10
1.7486
 20
0.2312
 30
0.0000
 40
0.0500
 50
62.8127
 51
92.8127
 62
2
  0
ARC
  8
1
  6
CONTINUOUS
 10
0.5000
 20
0.2031
 30
0.0000
 40
0.0781
 50
88.4612
 51
180.0000
 62
256
  0
ARC
  8
1
  6
CONTINUOUS
 10
0.5008
 20
0.2312
 30
0.0000
 40
0.0500
 50
88.4612
 51
118.4612
 62
2
  0
ARC
  8
1
  6
CONTINUOUS
 10
0.5008
 20
0.2312
 30
0.0000
 40
0.0500
 50
58.4612
 51
88.4612
 62
2
  0
ENDSEC
  0
EOF
